<svg xmlns="http://www.w3.org/2000/svg" xmlns:xlink="http://www.w3.org/1999/xlink" width="90" height="80" viewBox="0 0 90 80">
  <defs>
    <clipPath id="clip-path">
      <rect id="Rectangle_411073" data-name="Rectangle 411073" width="71" height="71" transform="translate(-8715 -11186)" fill="#fff" stroke="#707070" stroke-width="1" opacity="0"/>
    </clipPath>
  </defs>
  <g id="Group_1209118" data-name="Group 1209118" transform="translate(8725 11191)">
    <g id="Group_1209117" data-name="Group 1209117" transform="translate(-8724.892 -11191.287)">
      <ellipse id="Ellipse_12435" data-name="Ellipse 12435" cx="29" cy="28.5" rx="29" ry="28.5" transform="translate(31.891 23.287)" fill="#ffca49"/>
      <circle id="Ellipse_12436" data-name="Ellipse 12436" cx="16" cy="16" r="16" transform="translate(-0.109 0.287)" fill="#ffca49"/>
    </g>
    <g id="Mask_Group_1099407" data-name="Mask Group 1099407" clip-path="url(#clip-path)">
      <g id="comida-sana" transform="translate(-8715 -11183.871)">
        <path id="Path_1260194" data-name="Path 1260194" d="M69.954,37.233c0,9.359-6.05,17.018-13.444,17.018H48.622a11.049,11.049,0,0,1-5.737-1.639c-5.03-3.028-7.707-9.31-7.707-15.379A15.648,15.648,0,0,1,39.4,26.227a15.42,15.42,0,0,0,3.425-5.469,19.114,19.114,0,0,0,1.113-4.828c.066-.657.1-1.323.1-1.995,0-5.941,3.841-10.8,8.534-10.8a7.737,7.737,0,0,1,6.027,3.173A12.35,12.35,0,0,1,61.1,13.935a17.544,17.544,0,0,0,4.638,12.292,14.1,14.1,0,0,1,3.07,4.8,17.043,17.043,0,0,1,1.146,6.2Zm0,0" fill="#35e298"/>
        <path id="Path_1260195" data-name="Path 1260195" d="M51.841,31.837a20.579,20.579,0,0,1-2.615,9.246L42.885,52.612c-5.03-3.028-7.707-9.31-7.707-15.379A15.649,15.649,0,0,1,39.4,26.227a15.436,15.436,0,0,0,3.425-5.469,19.137,19.137,0,0,0,1.113-4.828,14.524,14.524,0,0,1,6.8,8.518,20.581,20.581,0,0,1,1.109,7.39Zm0,0" fill="#1ab975"/>
        <path id="Path_1260196" data-name="Path 1260196" d="M62.966,37.818a10.13,10.13,0,1,1-10.13-10.13A10.129,10.129,0,0,1,62.966,37.818Zm0,0" fill="#ae583e"/>
        <path id="Path_1260197" data-name="Path 1260197" d="M51.573,27.767a10.14,10.14,0,0,0-4.951,18.051l2.6-4.735a20.2,20.2,0,0,0,2.347-13.316Zm0,0" fill="#7c3f2c"/>
        <path id="Path_1260198" data-name="Path 1260198" d="M22.9,10.561C22.373,8.15,19.643-.579,8.108,1.407a.515.515,0,0,0-.377.73c1.194,2.51,6.263,11.81,14.7,9.222a.684.684,0,0,0,.472-.8Zm0,0" fill="#1ed688"/>
        <path id="Path_1260199" data-name="Path 1260199" d="M22.43,11.359c-8.436,2.588-13.5-6.712-14.7-9.222a.515.515,0,0,1,.376-.73,19.3,19.3,0,0,1,2.775-.284C12.652,4.245,16.614,9.7,22.55,9.275a13.21,13.21,0,0,1,.353,1.286.683.683,0,0,1-.472.8Zm0,0" fill="#1ab975"/>
        <path id="Path_1260200" data-name="Path 1260200" d="M43.267,41.083,35.907,54.465a7.417,7.417,0,0,1-9.652,2.47,6,6,0,0,0-5.571,0,7.412,7.412,0,0,1-9.651-2.47L3.672,41.083A20.3,20.3,0,0,1,2.165,24.447c2.262-6.574,6.675-8.868,9.723-9.66a12.239,12.239,0,0,1,3-.412c.173,0,.267.005.267.005a11.933,11.933,0,0,1,3.916.654,11.312,11.312,0,0,1,3.3,1.8,1.692,1.692,0,0,0,2.2,0,11.3,11.3,0,0,1,3.3-1.8,11.931,11.931,0,0,1,3.916-.654s9.32-.594,12.987,10.066a20.29,20.29,0,0,1-1.506,16.636Zm0,0" fill="#c42d2d"/>
        <path id="Path_1260201" data-name="Path 1260201" d="M43.267,41.083,35.907,54.465a7.417,7.417,0,0,1-9.652,2.47,6,6,0,0,0-5.571,0,7.487,7.487,0,0,1-2.927.824c-.056-.112-5.9-12.966-7.391-16.243-4.457-9.8-2.729-20.715,1.523-26.729a12.239,12.239,0,0,1,3-.412c.173,0,.267.005.267.005a11.933,11.933,0,0,1,3.916.654,11.312,11.312,0,0,1,3.3,1.8,1.692,1.692,0,0,0,2.2,0,11.3,11.3,0,0,1,3.3-1.8,11.931,11.931,0,0,1,3.916-.654s9.32-.594,12.987,10.066a20.29,20.29,0,0,1-1.506,16.636Zm0,0" fill="#f44545"/>
        <path id="Path_1260202" data-name="Path 1260202" d="M10.193,44.413a2.4,2.4,0,0,0-1,3.248,15.453,15.453,0,0,0,2.661,3.608l-8.018-.893A2.4,2.4,0,1,0,3.3,55.154l8.018.893a15.461,15.461,0,0,0-3.39,2.934,2.4,2.4,0,1,0,3.653,3.124c2.747-3.212,7.726-4.589,11.939-4.727a2.4,2.4,0,0,0,.445-4.745c-.076-.017-7.694-1.853-10.525-7.216a2.4,2.4,0,0,0-3.247-1Zm0,0" fill="#1ab975"/>
        <path id="Path_1260203" data-name="Path 1260203" d="M69.687,60.146a6.091,6.091,0,0,1-6.043,5.416L29.7,65.628a9.954,9.954,0,1,1,2.2-19.656l28.787,6.577,2.056.47,2.251.515a6.089,6.089,0,0,1,4.7,6.613Zm0,0" fill="#ffa90b"/>
        <path id="Path_1260204" data-name="Path 1260204" d="M69.64,58.457a6.083,6.083,0,0,1-4.828,2.392c-17.765.035-5.348.011-33.943.066a9.956,9.956,0,0,1-9.974-9.924,9.976,9.976,0,0,1,8.772-5.271,9.775,9.775,0,0,1,1.2.074,9.934,9.934,0,0,1,1.029.179l1.028.234c26.613,6.082,2.888.66,27.759,6.343l2.056.47,2.251.515a6.089,6.089,0,0,1,4.651,4.924Zm0,0" fill="#ffb52d"/>
        <path id="Path_1260205" data-name="Path 1260205" d="M3.73,51.417l.017,0Zm0,0"/>
        <path id="Path_1260206" data-name="Path 1260206" d="M3.771,51.422h0Zm0,0"/>
        <path id="Path_1260207" data-name="Path 1260207" d="M65.222,52.513l-.772-.177c7.486-6.134,9.081-19.751,2.03-26.847a16.6,16.6,0,0,1-4.334-11.554c0-6.532-4.3-11.847-9.579-11.847S42.987,7.4,42.987,13.935a18.678,18.678,0,0,1-.509,4.338,13.6,13.6,0,0,0-17.962-2.7V2.25a1.046,1.046,0,1,0-2.092,0V6.357C19.3.722,13.616-.786,7.25.5a1.048,1.048,0,0,0-.762,1.422,24.5,24.5,0,0,0,4.189,6.511c3.221,3.52,7.22,5.267,11.746,4.014v3.13c-6.143-4.269-16.429-2.736-20.655,7a1.046,1.046,0,0,0,1.919.833C7.556,14.5,16.8,13.777,21.707,17.641a2.738,2.738,0,0,0,3.525,0c5.584-4.4,15.243-2.484,18.552,7.138A19.308,19.308,0,0,1,42.12,40.987c-1.229,2.2-2.238,4.025-3.072,5.546-6.478-1.4-7.4-1.905-9.607-1.857a1.045,1.045,0,0,0,.043,2.09,8.925,8.925,0,0,1,1.265.067l-.628,5.634a1.046,1.046,0,0,0,2.08.231l.607-5.446,10.137,2.316-.3,2.687a1.046,1.046,0,1,0,2.079.231L45,50.037l15.678,3.582-.808,7.252a1.046,1.046,0,1,0,2.079.232l.782-7.015,2.03.465a5.045,5.045,0,0,1-1.113,9.964l-10.705.021.38-3.411a1.046,1.046,0,1,0-2.079-.232l-.406,3.647-10.261.02.358-3.206a1.046,1.046,0,0,0-2.079-.231c-.089.8-.374,3.357-.383,3.442l-4.913.009.622-5.581a1.046,1.046,0,0,0-2.08-.231l-.648,5.817h-.037l-1.732,0a8.906,8.906,0,0,1-3.809-16.959,1.046,1.046,0,0,0-.9-1.89,10.976,10.976,0,0,0-4.779,4.36,13.014,13.014,0,0,1-5.83-5.163,3.452,3.452,0,0,0-6.5,1.6L4.589,40.571A19.252,19.252,0,0,1,2.5,27.181a1.046,1.046,0,1,0-2.049-.424A21.347,21.347,0,0,0,2.756,41.58L7.224,49.7,3.95,49.336a3.45,3.45,0,0,0-.764,6.857l5.422.6C7.263,58,6.18,59.092,6.316,60.812a3.454,3.454,0,0,0,6.06,1.973A13.029,13.029,0,0,1,19.2,59.028a11.014,11.014,0,0,0,10.479,7.645l33.967-.066a7.136,7.136,0,0,0,1.575-14.094ZM9,2.32c6.955-.95,11.34,2.365,12.8,8.124C16.134,11.97,11.679,7.491,9,2.32ZM61.722,51.713,41.175,47.018c.594-1.088,1.252-2.288,1.986-3.609A11.176,11.176,0,0,0,63.8,40.022a1.046,1.046,0,0,0-2.051-.41A9.085,9.085,0,0,1,44.4,41.182,21.61,21.61,0,0,0,46.94,30.913a9.1,9.1,0,0,1,14.774,4.973,1.046,1.046,0,1,0,2.044-.443,11.174,11.174,0,0,0-16.984-7.009,20.577,20.577,0,0,0-2.723-8,20.664,20.664,0,0,0,1.027-6.5c0-4.826,3.006-9.755,7.488-9.755,4.434,0,7.487,4.863,7.487,9.755A18.48,18.48,0,0,0,65,26.965c5.447,5.478,4.92,15.647.188,21.638a13.007,13.007,0,0,1-3.463,3.11ZM18.755,56.969a15.187,15.187,0,0,0-7.968,4.457,1.358,1.358,0,0,1-2.064-1.764,14.47,14.47,0,0,1,3.163-2.736,1.046,1.046,0,0,0-.452-1.918l-8.017-.894a1.357,1.357,0,1,1,.3-2.7h.007l.025,0h0l.024,0-.015,0L11,52.227c.333-.021,1.346.41,1.789-.5a1.047,1.047,0,0,0-.194-1.191,14.461,14.461,0,0,1-2.482-3.363,1.36,1.36,0,0,1,.566-1.835h0a1.357,1.357,0,0,1,1.834.568,15.144,15.144,0,0,0,6.8,6.072,11.115,11.115,0,0,0-.561,4.991Zm0,0"/>
      </g>
    </g>
  </g>
</svg>
