<svg xmlns="http://www.w3.org/2000/svg" xmlns:xlink="http://www.w3.org/1999/xlink" width="90" height="90" viewBox="0 0 90 90">
  <defs>
    <clipPath id="clip-path">
      <rect width="90" height="90" fill="none"/>
    </clipPath>
    <clipPath id="clip-path-2">
      <rect id="Rectangle_411078" data-name="Rectangle 411078" width="78" height="76" transform="translate(-591 -8381)" fill="#fff" stroke="#707070" stroke-width="1" opacity="0"/>
    </clipPath>
  </defs>
  <g id="Repeat_Grid_1" data-name="Repeat Grid 1" clip-path="url(#clip-path)">
    <g id="Group_1209272" data-name="Group 1209272" transform="translate(596.71 8387.634)">
      <g id="Group_1209130" data-name="Group 1209130">
        <g id="Group_1209129" data-name="Group 1209129" transform="translate(-7.686 -165.211)">
          <g id="Group_1202383" data-name="Group 1202383" transform="translate(-1610.99 -11325.078)">
            <g id="Group_1200255" data-name="Group 1200255" transform="translate(1021.967 3102.655)">
              <g id="Group_1187152" data-name="Group 1187152" transform="translate(0)">
                <g id="Group_1185946" data-name="Group 1185946">
                  <g id="Group_1184280" data-name="Group 1184280">
                    <g id="Group_1182168" data-name="Group 1182168">
                      <g id="Group_1178877" data-name="Group 1178877">
                        <g id="Group_1111311" data-name="Group 1111311">
                          <g id="Group_1098742" data-name="Group 1098742" transform="translate(0 0)">
                            <g id="Rectangle_400898" data-name="Rectangle 400898" transform="translate(0)" fill="#cfe0b9" stroke="#435829" stroke-width="1" opacity="0.859">
                              <rect width="90" height="90" rx="45" stroke="none"/>
                              <rect x="0.5" y="0.5" width="89" height="89" rx="44.5" fill="none"/>
                            </g>
                            <g id="Rectangle_400907" data-name="Rectangle 400907" fill="none" stroke="#435829" stroke-width="1">
                              <rect width="90" height="90" rx="45" stroke="none"/>
                              <rect x="0.5" y="0.5" width="89" height="89" rx="44.5" fill="none"/>
                            </g>
                          </g>
                        </g>
                      </g>
                    </g>
                  </g>
                </g>
              </g>
            </g>
          </g>
        </g>
      </g>
      <g id="Mask_Group_1099410" data-name="Mask Group 1099410" clip-path="url(#clip-path-2)">
        <g id="alimentos-organicos" transform="translate(-591.384 -8382.384)">
          <g id="Group_1209187" data-name="Group 1209187">
            <g id="Group_1209183" data-name="Group 1209183">
              <g id="Group_1209182" data-name="Group 1209182">
                <path id="Path_1260215" data-name="Path 1260215" d="M23.81,2.5c-1.521-.408-3.735,2.923-4.945,7.44s-.958,8.508.563,8.915,3.735-2.923,4.945-7.44S25.331,2.9,23.81,2.5Z" fill="#afe269" fill-rule="evenodd"/>
                <path id="Path_1260216" data-name="Path 1260216" d="M2.5,14.8c.408-1.521,4.4-1.773,8.915-.563s7.847,3.424,7.44,4.945-4.4,1.773-8.915.563S2.09,16.323,2.5,14.8Z" fill="#afe269" fill-rule="evenodd"/>
                <ellipse id="Ellipse_12624" data-name="Ellipse 12624" cx="2.914" cy="8.654" rx="2.914" ry="8.654" transform="translate(8.452 5.648) rotate(-30.001)" fill="#c6ea94"/>
              </g>
              <path id="Path_1260217" data-name="Path 1260217" d="M43.621,66,16.255,35.824c-4.783-5.274-2.972-13.424,3.173-16.971,6.059-3.5,14.022-.852,16.16,5.81L48.037,63.448A2.585,2.585,0,0,1,43.621,66Z" fill="#fc9314" fill-rule="evenodd"/>
            </g>
            <g id="Group_1209184" data-name="Group 1209184">
              <path id="Path_1260218" data-name="Path 1260218" d="M8.473,41.73c-4.607,1.234-7.093,6.893-5.554,12.64,1.48,5.522,6.886,8.283,12.293,8.283S26.025,59.891,27.5,54.369c1.54-5.746-.947-11.405-5.554-12.64-.247-.066-13.231-.066-13.478,0Z" fill="#f76c82" fill-rule="evenodd"/>
              <path id="Path_1260219" data-name="Path 1260219" d="M12.388,38.955a9.546,9.546,0,0,0-6.743,3.58.154.154,0,0,0,.157.248,16.433,16.433,0,0,1,4.922-.692,15.15,15.15,0,0,0-1.972,3.751.154.154,0,0,0,.254.149,7.544,7.544,0,0,1,3.58-1.6,9.585,9.585,0,0,0,2.517,5,.154.154,0,0,0,.217,0,9.585,9.585,0,0,0,2.517-5,7.543,7.543,0,0,1,3.58,1.6.154.154,0,0,0,.254-.149A15.14,15.14,0,0,0,19.7,42.092a16.437,16.437,0,0,1,4.922.692.154.154,0,0,0,.157-.248,9.546,9.546,0,0,0-6.743-3.58,6.856,6.856,0,0,0,.1-5,.456.456,0,0,0-.443-.331H12.933a.462.462,0,0,0-.453.551c.363,1.841,1.044,2.626-.092,4.783Z" fill="#c6ea94" fill-rule="evenodd"/>
            </g>
            <g id="Group_1209185" data-name="Group 1209185">
              <path id="Path_1260220" data-name="Path 1260220" d="M54.179,38.415a9.647,9.647,0,0,1,5.4,1.682,9.648,9.648,0,0,1,5.4-1.682c6.262,0,11.339,6.264,11.339,13.991S71.232,66.4,64.969,66.4a9.648,9.648,0,0,1-5.4-1.682,9.648,9.648,0,0,1-5.4,1.682c-6.262,0-11.338-6.264-11.338-13.991S47.917,38.415,54.179,38.415Z" fill="#f76c82" fill-rule="evenodd"/>
            </g>
            <g id="Group_1209186" data-name="Group 1209186">
              <path id="Path_1260221" data-name="Path 1260221" d="M18.723,68.147H60.049a.771.771,0,0,1,.769.769v6.622a.771.771,0,0,1-.769.769H18.723a.771.771,0,0,1-.769-.769V68.916a.771.771,0,0,1,.769-.769Z" fill="#f5b945" fill-rule="evenodd"/>
              <path id="Path_1260222" data-name="Path 1260222" d="M3.254,62.011H75.518a.77.77,0,0,1,.768.813c-.331,5.887-4.4,8.913-14.659,8.869H17.144c-10.26.044-14.327-2.982-14.659-8.869a.77.77,0,0,1,.768-.813Z" fill="#fdcd56" fill-rule="evenodd"/>
            </g>
          </g>
          <path id="Path_1260223" data-name="Path 1260223" d="M62.444,8.856a1.079,1.079,0,0,1,1.079-1.077h3.359a1.077,1.077,0,0,1,0,2.154H63.522A1.079,1.079,0,0,1,62.444,8.856Zm6.392,6.392V11.891a1.079,1.079,0,0,1,2.157,0v3.357a1.079,1.079,0,0,1-2.157,0Zm0-9.43V2.464a1.079,1.079,0,0,1,2.157,0V5.819a1.079,1.079,0,0,1-2.157,0Zm3.04,3.037a1.073,1.073,0,0,1,1.071-1.077h3.359a1.077,1.077,0,1,1,0,2.154H72.948a1.073,1.073,0,0,1-1.071-1.076ZM42.515,20.886a1.079,1.079,0,0,1,1.079-1.076h3.359a1.077,1.077,0,0,1,0,2.154H43.593A1.08,1.08,0,0,1,42.515,20.886Zm6.392,6.392V23.921a1.079,1.079,0,0,1,2.157,0v3.357a1.079,1.079,0,0,1-2.157,0Zm0-9.429V14.494a1.079,1.079,0,0,1,2.157,0v3.355a1.079,1.079,0,0,1-2.157,0Zm3.04,3.037a1.072,1.072,0,0,1,1.071-1.076h3.359a1.077,1.077,0,1,1,0,2.154H53.019A1.074,1.074,0,0,1,51.947,20.886ZM46.482,60.933a14.872,14.872,0,0,1-2.563-8.527c0-7.122,4.6-12.914,10.258-12.914a8.529,8.529,0,0,1,4.8,1.5,1.071,1.071,0,0,0,1.194,0,8.528,8.528,0,0,1,4.8-1.5c5.654,0,10.258,5.792,10.258,12.914a14.873,14.873,0,0,1-2.563,8.527Zm26.792,6.711c-2.005,2-5.748,2.972-11.431,2.972H16.924c-5.683,0-9.418-.974-11.423-2.972a6.97,6.97,0,0,1-1.918-4.556h71.6a6.966,6.966,0,0,1-1.911,4.556ZM19.031,75.23V72.768H59.744V75.23ZM3.959,54.09c-1.137-4.239.08-8.512,2.961-10.476q.966-.226,1.781-.338a7.632,7.632,0,0,0-1.1,3.037,1.078,1.078,0,0,0,1.9.714,5.012,5.012,0,0,1,2.287-1.336,10.182,10.182,0,0,0,2.671,4.588,1.074,1.074,0,0,0,.746.3,1.048,1.048,0,0,0,.746-.3,10.2,10.2,0,0,0,2.678-4.588,5.01,5.01,0,0,1,2.287,1.336,1.07,1.07,0,0,0,1.2.317,1.085,1.085,0,0,0,.7-1.032,7.545,7.545,0,0,0-1.108-3.035c.55.075,1.144.188,1.788.338,2.8,1.914,4.112,6.165,2.961,10.476a10.005,10.005,0,0,1-6.986,6.842H10.945A9.982,9.982,0,0,1,3.959,54.09Zm8.506-14.061a8.166,8.166,0,0,0-3.446,1.04,12,12,0,0,1,1.752-.052A1.075,1.075,0,0,1,11.6,42.71c-.217.312-.442.649-.644.989a9.818,9.818,0,0,1,1.455-.368,1.179,1.179,0,0,1,.174-.014,1.08,1.08,0,0,1,1.057.874,8.947,8.947,0,0,0,1.564,3.692,8.971,8.971,0,0,0,1.571-3.692,1.079,1.079,0,0,1,1.231-.861,9.778,9.778,0,0,1,1.455.368c-.21-.341-.427-.678-.644-.989a1.075,1.075,0,0,1,.832-1.694,12,12,0,0,1,1.752.052,8.166,8.166,0,0,0-3.453-1.04,1.079,1.079,0,0,1-.9-1.507,5.618,5.618,0,0,0,.181-3.824H13.71c.022.089.043.177.065.264a5.2,5.2,0,0,1-.434,4.494,1.085,1.085,0,0,1-.876.573ZM28.543,54.648a11.432,11.432,0,0,1-4.329,6.284H37.57L29.021,51.5a14.147,14.147,0,0,1-.478,3.146ZM19.965,19.785a10.284,10.284,0,0,0-4.575,12.76h2.649a1.077,1.077,0,0,1,1.021.749,8.917,8.917,0,0,1,.4,4.772,10.838,10.838,0,0,1,6.472,4.178,1.059,1.059,0,0,1,.217.532l4.677-2.7A1.077,1.077,0,0,1,31.9,41.943l-4.6,2.652a11.277,11.277,0,0,1,1.368,3.318L40.48,60.933h3.46a17.358,17.358,0,0,1-2.179-8.527,17.7,17.7,0,0,1,.152-2.336l-3.431,1.982A1.077,1.077,0,1,1,37.4,50.187l4.423-2.555-6.855-21.37-8.535,4.928a1.077,1.077,0,1,1-1.079-1.864l8.9-5.14a9.349,9.349,0,0,0-5.343-5.112,10.366,10.366,0,0,0-8.955.712Zm-16.425-4.7c.333-.439,3.062-1.017,7.594.2a23.07,23.07,0,0,1,2.353.767A16.561,16.561,0,0,0,15.73,18.52a9.035,9.035,0,0,0,1.021.788,16.426,16.426,0,0,1-6.537-.6C5.682,17.492,3.6,15.625,3.539,15.082ZM11.5,5.125c.536-.075,2.881,1.444,5.227,5.507s2.5,6.853,2.157,7.283c-.543.073-2.881-1.446-5.227-5.51s-2.5-6.852-2.157-7.281ZM23.527,3.54c.442.329,1.021,3.061-.2,7.594a18.622,18.622,0,0,1-2.2,5.235c-.036-.276-.08-.569-.138-.886a17.969,17.969,0,0,0-1.39-4c.087-.421.188-.846.3-1.269,1.209-4.53,3.077-6.609,3.62-6.675Zm41.444,33.8a10.571,10.571,0,0,0-4.235.9,15.167,15.167,0,0,1,2.9-5.591,1.076,1.076,0,1,0-1.708-1.31,16.886,16.886,0,0,0-3.41,6.948,10.587,10.587,0,0,0-4.343-.946c-4.684,0-8.767,3.161-10.88,7.82L36.615,24.332a11.6,11.6,0,0,0-6.921-7.27,12.471,12.471,0,0,0-6.045-.746,23.246,23.246,0,0,0,1.766-4.627,20.712,20.712,0,0,0,.775-6.346c-.174-2.8-1.238-3.659-2.1-3.89s-2.215-.015-3.764,2.319A19.273,19.273,0,0,0,18.1,8.723a19.611,19.611,0,0,0-3.439-4.2c-2.1-1.853-3.467-1.709-4.235-1.263S8.846,4.809,9.4,7.556a20.436,20.436,0,0,0,2.222,5.624,20.516,20.516,0,0,0-6.276-.759c-2.794.176-3.656,1.24-3.887,2.1s-.014,2.214,2.317,3.764a20.657,20.657,0,0,0,5.885,2.5,22.444,22.444,0,0,0,5.169.8,12.866,12.866,0,0,0-1.8,3.562,11.7,11.7,0,0,0,.043,7.4h-.688a1.075,1.075,0,0,0-1.064,1.225,13.158,13.158,0,0,0,.376,1.749,3.074,3.074,0,0,1-.022,2.427,10.743,10.743,0,0,0-7.181,4.3,1.047,1.047,0,0,0-.217.815C1.693,45.8.709,50.269,1.881,54.648A11.457,11.457,0,0,0,6.2,60.933H2.461A1.08,1.08,0,0,0,1.382,62.01a9.568,9.568,0,0,0,2.6,7.16c2.454,2.45,6.559,3.6,12.893,3.6v3.536a1.079,1.079,0,0,0,1.079,1.077H60.815a1.079,1.079,0,0,0,1.079-1.077V72.768c6.341,0,10.439-1.149,12.9-3.6a9.564,9.564,0,0,0,2.592-7.16,1.08,1.08,0,0,0-1.079-1.077h-1.1a17.358,17.358,0,0,0,2.179-8.527c0-8.309-5.574-15.068-12.415-15.068Z" fill-rule="evenodd"/>
        </g>
      </g>
    </g>
  </g>
</svg>
