<svg xmlns="http://www.w3.org/2000/svg" xmlns:xlink="http://www.w3.org/1999/xlink" width="110" height="98" viewBox="0 0 110 98">
  <defs>
    <clipPath id="clip-path">
      <rect id="Rectangle_411079" data-name="Rectangle 411079" width="86" height="79" transform="translate(2666 -5891)" fill="#fff" stroke="#707070" stroke-width="1" opacity="0"/>
    </clipPath>
    <clipPath id="clip-path-2">
      <path id="path1353" d="M0-79H79V0H0Z"/>
    </clipPath>
  </defs>
  <g id="Group_1209193" data-name="Group 1209193" transform="translate(-2654.001 5901)">
    <g id="Group_1209189" data-name="Group 1209189">
      <g id="Group_1208322" data-name="Group 1208322" transform="translate(53 -85)">
        <g id="Group_1208321" data-name="Group 1208321" transform="translate(1795.535 -7803.608)">
          <g id="Group_1202749" data-name="Group 1202749" transform="translate(805.781 1988)">
            <ellipse id="Ellipse_12435" data-name="Ellipse 12435" cx="35.5" cy="35" rx="35.5" ry="35" transform="translate(38.685 27.609)" fill="#89b254"/>
            <circle id="Ellipse_12436" data-name="Ellipse 12436" cx="19.5" cy="19.5" r="19.5" transform="translate(-0.315 -0.391)" fill="#89b254"/>
          </g>
        </g>
      </g>
    </g>
    <g id="Mask_Group_1099411" data-name="Mask Group 1099411" clip-path="url(#clip-path)">
      <g id="g1347" transform="translate(2669.5 -5812)">
        <g id="g1349">
          <g id="g1351" clip-path="url(#clip-path-2)">
            <g id="g1357" transform="translate(65.769 -64.146)">
              <path id="path1359" d="M0,0A9.2,9.2,0,0,0-1.993-1.471a9.831,9.831,0,0,0-2.34-.922,10.071,10.071,0,0,0-4.957.035,9.263,9.263,0,0,0-5.5,3.952,9.53,9.53,0,0,0-.891,1.875c-1.229,4.154-4.009,10.011-3.833,18.846L-7.06,19.447l7.534-7.89a8.7,8.7,0,0,0,.817-1.089A8.179,8.179,0,0,0,2.34,4.013,8.507,8.507,0,0,0,0,0" fill="#ffdb4f" fill-rule="evenodd"/>
            </g>
            <g id="g1361" transform="translate(62.516 -70.166)">
              <path id="path1363" d="M0,0A7.508,7.508,0,0,0-2.138-3.64L-4.812-6.059c-.549-.5-.795-.435-1.019.246L-6.924-2.494a7.633,7.633,0,0,0,.887,6.156c1.594-.417,4.25,1.3,5.9,1.717A29.44,29.44,0,0,1,0,0" fill="#ccf49e" fill-rule="evenodd"/>
            </g>
            <g id="g1365" transform="translate(68.729 -66.877)">
              <path id="path1367" d="M0,0A7.3,7.3,0,0,0,1.265-4.009L1.208-7.478C1.194-8.193.975-8.316.3-7.983L-2.994-6.353A7.992,7.992,0,0,0-6.213-3.289,7.21,7.21,0,0,0-7.293.338c.874,2.209,2.318,3.218,4.334,2.393A7.907,7.907,0,0,0,0,0" fill="#ccf49e" fill-rule="evenodd"/>
            </g>
            <g id="g1369" transform="translate(74.23 -62.376)">
              <path id="path1371" d="M0,0,2.595-2.494c.531-.509.47-.742-.264-.948L-1.229-4.466A8.672,8.672,0,0,0-5.5-4.5c-.746,1.146-3.174,2.129-4.351,2.731C-8.689-.637-6.5.755-6.121,2.244A9.034,9.034,0,0,0,0,0" fill="#ccf49e" fill-rule="evenodd"/>
            </g>
            <g id="g1373" transform="translate(63.139 -59.909)">
              <path id="path1375" d="M0,0A8.154,8.154,0,0,1-.43,5.3a9.538,9.538,0,0,1-.619,1.159,9.163,9.163,0,0,1-.817,1.089q-3.662,3.833-7.319,7.666H-4.43l3.144-3.293L3.1,7.32a8.7,8.7,0,0,0,.817-1.089A8.179,8.179,0,0,0,4.97-.224,8.506,8.506,0,0,0,2.63-4.237,9.192,9.192,0,0,0,.637-5.708,9.829,9.829,0,0,0-1.7-6.63a10.071,10.071,0,0,0-4.957.035c-.127.035-.25.07-.378.11.123.022.241.053.36.083A9.028,9.028,0,0,1,0,0" fill="#ffc269" fill-rule="evenodd"/>
            </g>
            <g id="g1377" transform="translate(56.685 -75.979)">
              <path id="path1379" d="M0,0-.382,1.15l1.87,1.69A7.541,7.541,0,0,1,3.622,6.476a7.752,7.752,0,0,0-1,2.674,10.053,10.053,0,0,1,2.13.29,7.209,7.209,0,0,1,1.08-3.627,7.509,7.509,0,0,0-2.138-3.64L1.019-.246C.47-.742.224-.681,0,0" fill="#b3e59e" fill-rule="evenodd"/>
            </g>
            <g id="g1381" transform="translate(67.455 -71.492)">
              <path id="path1383" d="M0,0A7.286,7.286,0,0,1-1.26,4,8.4,8.4,0,0,1-3.245,6.13,9.151,9.151,0,0,1-1.686,7.346,7.907,7.907,0,0,0,1.273,4.615,7.3,7.3,0,0,0,2.538.606L2.481-2.863c-.013-.716-.233-.839-.909-.505l-1.611.8Z" fill="#b3e59e" fill-rule="evenodd"/>
            </g>
            <g id="g1385" transform="translate(72.298 -63.795)">
              <path id="path1387" d="M0,0A8.705,8.705,0,0,1-4.733,2.147a8.542,8.542,0,0,1,.545,1.515A9.033,9.033,0,0,0,1.932,1.418L4.527-1.076c.531-.509.47-.742-.263-.948L2.6-2.5s-.009.009-.013.009Z" fill="#b3e59e" fill-rule="evenodd"/>
            </g>
            <g id="g1389" transform="translate(32.373 -60.558)">
              <path id="path1391" d="M0,0C-1.5-1.115-3.047-1.256-3.047-5.6v-5.655l-5.967-1.4-5.2,1.4V-5.6c0,8.106-5.778,5.765-5.778,13.691V15.86l16.457,4.184C.364,18.139,2.323,8.711,0,0" fill="#b1d7fe" fill-rule="evenodd"/>
            </g>
            <g id="g1393" transform="translate(30.674 -72.33)">
              <path id="path1395" d="M0,0V-4.641A.534.534,0,0,0-.553-5.15H-13.308a.531.531,0,0,0-.549.509V0a.534.534,0,0,0,.549.514H-.553A.538.538,0,0,0,0,0" fill="#ccf49e" fill-rule="evenodd"/>
            </g>
            <g id="g1397" transform="translate(24.984 -71.817)">
              <path id="path1399" d="M0,0V6.349c0,4.347,1.55,4.487,3.047,5.6a35.619,35.619,0,0,0-2.564,7.3A35.127,35.127,0,0,0-.5,27.118H3.855a34.656,34.656,0,0,1,.97-8.558,35.9,35.9,0,0,1,2.564-7.3c-1.5-1.115-3.047-1.256-3.047-5.6V0Z" fill="#73bffd" fill-rule="evenodd"/>
            </g>
            <g id="g1401" transform="translate(26.327 -76.971)">
              <path id="path1403" d="M0,0V4.641a.534.534,0,0,1-.549.514H3.794a.538.538,0,0,0,.553-.514V0a.535.535,0,0,0-.553-.509H-.549A.53.53,0,0,1,0,0" fill="#b3e59e" fill-rule="evenodd"/>
            </g>
            <g id="g1405" transform="translate(50.086 -60.677)">
              <path id="path1407" d="M0,0C-.65-5.093-2.8-8.76-6.055-9.431c-4.013-.826-8.575,3.153-11.657,9.55a35.874,35.874,0,0,0-2.564,7.3,34.656,34.656,0,0,0-.97,8.558l11.223,9.014,7.877-9.014A37.46,37.46,0,0,0-.764,11.443,32.631,32.631,0,0,0,0,0" fill="#f7b081" fill-rule="evenodd"/>
            </g>
            <g id="g1409" transform="translate(39.5 -1.519)">
              <path id="path1411" d="M0,0,2.788-15.276,0-43.18-34.63-30.635V-.795A.8.8,0,0,0-33.844,0Z" fill="#ffc89f" fill-rule="evenodd"/>
            </g>
            <g id="g1413" transform="translate(74.129 -2.314)">
              <path id="path1415" d="M0,0V-29.84L-34.63-42.385V.795H-.786A.8.8,0,0,0,0,0" fill="#f7b081" fill-rule="evenodd"/>
            </g>
            <g id="g1417" transform="translate(33.502 -32.936)">
              <path id="path1419" d="M0,0,6-11.763H-25.475a1.486,1.486,0,0,0-1.172.777L-32.25,0c-.22.43-.044.782.382.782h30.7A1.481,1.481,0,0,0,0,0" fill="#ffdecf" fill-rule="evenodd"/>
            </g>
            <g id="g1421" transform="translate(77.747 -32.936)">
              <path id="path1423" d="M0,0-5.6-10.986a1.486,1.486,0,0,0-1.172-.777H-38.247L-32.25,0a1.481,1.481,0,0,0,1.172.782h30.7C.048.782.22.43,0,0" fill="#ffdecf" fill-rule="evenodd"/>
            </g>
            <g id="g1425" transform="translate(74.129 -32.154)">
              <path id="path1427" d="M0,0H-27.46a1.481,1.481,0,0,1-1.172-.782l-6-11.763v7.881l4.255,8.571a1.476,1.476,0,0,0,1.172.777H-5.559c1.322,0,1.129-.228,1.129,1.071V30.635H-.795A.8.8,0,0,0,0,29.84Z" fill="#db9975" fill-rule="evenodd"/>
            </g>
            <g id="g1429" transform="translate(32.33 -32.154)">
              <path id="path1431" d="M0,0H-27.46V4.685H1.559a1.493,1.493,0,0,0,1.172-.777L7.17-4.663v-7.881l-6,11.763A1.481,1.481,0,0,1,0,0" fill="#fcb788" fill-rule="evenodd"/>
            </g>
            <g id="g1433" transform="translate(70.972 -44.699)">
              <path id="path1435" d="M0,0H-6.02A1.479,1.479,0,0,1-4.847.777l5.6,10.986c.215.426.048.773-.369.782H6.393c.43,0,.6-.351.382-.782L1.172.777A1.486,1.486,0,0,0,0,0" fill="#ffcbbe" fill-rule="evenodd"/>
            </g>
            <g id="g1437" transform="translate(33.866 -44.699)">
              <path id="path1439" d="M0,0-6,11.763a1.492,1.492,0,0,1-1.172.782h5.633a1.481,1.481,0,0,0,1.172-.782L5.633,0Z" fill="#ffcbbe" fill-rule="evenodd"/>
            </g>
            <g id="g1441" transform="translate(40.18 -69.551)">
              <path id="path1443" d="M0,0C3.038.865,5.049,4.444,5.677,9.335a32.635,32.635,0,0,1-.768,11.443A38.337,38.337,0,0,1,3.7,24.852H7.758a37.461,37.461,0,0,0,1.383-4.536A32.631,32.631,0,0,0,9.905,8.874C9.256,3.78,7.1.114,3.851-.558A6.122,6.122,0,0,0,0,0" fill="#db9975" fill-rule="evenodd"/>
            </g>
            <g id="g1445" transform="translate(39.5 -44.699)">
              <path id="path1447" d="M0,0V43.18" fill="none" stroke="#000" stroke-linecap="round" stroke-linejoin="round" stroke-miterlimit="10" stroke-width="2.314"/>
            </g>
            <g id="g1449" transform="translate(39.5 -44.699)">
              <path id="path1451" d="M0,0H-31.473a1.486,1.486,0,0,0-1.172.777l-5.6,10.986c-.22.43-.044.782.382.782h30.7A1.481,1.481,0,0,0-6,11.763Z" fill="none" stroke="#000" stroke-linecap="round" stroke-linejoin="round" stroke-miterlimit="10" stroke-width="2.314"/>
            </g>
            <g id="g1453" transform="translate(4.87 -19.899)">
              <path id="path1455" d="M0,0V-12.255m69.259,0v29.84a.8.8,0,0,1-.795.795H.795A.8.8,0,0,1,0,17.585V5.366" fill="none" stroke="#000" stroke-linecap="round" stroke-linejoin="round" stroke-miterlimit="10" stroke-width="2.314"/>
            </g>
            <g id="g1457" transform="translate(56.689 -32.145)">
              <path id="path1459" d="M0,0-10.02-.009A1.491,1.491,0,0,1-11.192-.79l-6-11.763H14.283a1.486,1.486,0,0,1,1.172.777L21.058-.79c.22.43.048.777-.382.782L5.365,0" fill="none" stroke="#000" stroke-linecap="round" stroke-linejoin="round" stroke-miterlimit="10" stroke-width="2.314"/>
            </g>
            <g id="g1461" transform="translate(66.217 -52.677)">
              <path id="path1463" d="M0,0-7.385-4.075" fill="none" stroke="#000" stroke-linecap="round" stroke-linejoin="round" stroke-miterlimit="10" stroke-width="2.314"/>
            </g>
            <g id="g1465" transform="translate(30.121 -77.481)">
              <path id="path1467" d="M0,0H-12.755A.53.53,0,0,0-13.3.509V5.15a.534.534,0,0,0,.549.514H0A.538.538,0,0,0,.553,5.15V.509A.534.534,0,0,0,0,0Z" fill="none" stroke="#000" stroke-linecap="round" stroke-linejoin="round" stroke-miterlimit="10" stroke-width="2.314"/>
            </g>
            <g id="g1469" transform="translate(28.839 -44.699)">
              <path id="path1471" d="M0,0A34.656,34.656,0,0,1,.97-8.558C3.438-18.973,9.8-26.516,15.192-25.41s7.754,10.455,5.291,20.874A37.488,37.488,0,0,1,19.1,0" fill="none" stroke="#000" stroke-linecap="round" stroke-linejoin="round" stroke-miterlimit="10" stroke-width="2.314"/>
            </g>
            <g id="g1473" transform="translate(50.086 -60.677)">
              <path id="path1475" d="M0,0,.259-.681A8.416,8.416,0,0,1,.891-1.875,9.727,9.727,0,0,1,13.69-4.94,8.392,8.392,0,0,1,16.975,7a8.7,8.7,0,0,1-.817,1.089l-7.534,7.89" fill="none" stroke="#000" stroke-linecap="round" stroke-linejoin="round" stroke-miterlimit="10" stroke-width="2.314"/>
            </g>
            <g id="g1477" transform="translate(61.436 -66.539)">
              <path id="path1479" d="M0,0A8,8,0,0,1,4.3-6.692L7.592-8.321c.676-.334.9-.211.909.505l.057,3.469a8.007,8.007,0,0,1-4.224,6.74" fill="none" stroke="#000" stroke-linecap="round" stroke-linejoin="round" stroke-miterlimit="10" stroke-width="2.314"/>
            </g>
            <g id="g1481" transform="translate(56.479 -66.504)">
              <path id="path1483" d="M0,0A7.633,7.633,0,0,1-.887-6.156L.206-9.476c.224-.68.47-.742,1.019-.246L3.9-7.3a7.507,7.507,0,0,1,2.138,3.64" fill="none" stroke="#000" stroke-linecap="round" stroke-linejoin="round" stroke-miterlimit="10" stroke-width="2.314"/>
            </g>
            <g id="g1485" transform="translate(68.109 -60.133)">
              <path id="path1487" d="M0,0A9.033,9.033,0,0,0,6.121-2.244L8.716-4.738c.531-.509.47-.742-.264-.948L4.891-6.709A8.671,8.671,0,0,0,.619-6.744" fill="none" stroke="#000" stroke-linecap="round" stroke-linejoin="round" stroke-miterlimit="10" stroke-width="2.314"/>
            </g>
            <g id="g1489" transform="translate(32.373 -60.558)">
              <path id="path1491" d="M0,0C-1.5-1.115-3.047-1.256-3.047-5.6v-5.655H-14.213V-5.6c0,8.106-5.778,5.765-5.778,13.691V15.86" fill="none" stroke="#000" stroke-linecap="round" stroke-linejoin="round" stroke-miterlimit="10" stroke-width="2.314"/>
            </g>
            <g id="g1493" transform="translate(44.062 -50.319)">
              <path id="path1495" d="M0,0-8.992-1.853" fill="none" stroke="#000" stroke-linecap="round" stroke-linejoin="round" stroke-miterlimit="10" stroke-width="2.314"/>
            </g>
            <g id="g1497" transform="translate(43.934 -57.792)">
              <path id="path1499" d="M0,0-5.379-1.106" fill="none" stroke="#000" stroke-linecap="round" stroke-linejoin="round" stroke-miterlimit="10" stroke-width="2.314"/>
            </g>
            <g id="g1501" transform="translate(61.853 -47.992)">
              <path id="path1503" d="M0,0-5.322-2.938" fill="none" stroke="#000" stroke-linecap="round" stroke-linejoin="round" stroke-miterlimit="10" stroke-width="2.314"/>
            </g>
            <g id="g1505" transform="translate(12.624 -16.352)">
              <path id="path1507" d="M0,0H9.7" fill="none" stroke="#000" stroke-linecap="round" stroke-linejoin="round" stroke-miterlimit="10" stroke-width="2.314"/>
            </g>
            <g id="g1509" transform="translate(12.624 -10.529)">
              <path id="path1511" d="M0,0H9.7" fill="none" stroke="#000" stroke-linecap="round" stroke-linejoin="round" stroke-miterlimit="10" stroke-width="2.314"/>
            </g>
          </g>
        </g>
      </g>
    </g>
  </g>
</svg>
