<svg xmlns="http://www.w3.org/2000/svg" xmlns:xlink="http://www.w3.org/1999/xlink" width="90" height="80" viewBox="0 0 90 80">
  <defs>
    <clipPath id="clip-path">
      <rect id="Rectangle_411092" data-name="Rectangle 411092" width="71" height="73" transform="translate(719.051 8588.087)" fill="#fff" stroke="#707070" stroke-width="1" opacity="0"/>
    </clipPath>
  </defs>
  <g id="Group_1209249" data-name="Group 1209249" transform="translate(-709 -8584.531)">
    <g id="Group_1209249-2" data-name="Group 1209249" transform="translate(-1915.722 11500.087)">
      <g id="Group_1209211" data-name="Group 1209211" transform="translate(1818.941 -4903.556)">
        <g id="Group_1202749" data-name="Group 1202749" transform="translate(805.89 1987.713)">
          <ellipse id="Ellipse_12435" data-name="Ellipse 12435" cx="29" cy="28.5" rx="29" ry="28.5" transform="translate(31.891 23.287)" fill="#ffca49"/>
          <circle id="Ellipse_12436" data-name="Ellipse 12436" cx="16" cy="16" r="16" transform="translate(-0.109 0.287)" fill="#ffca49"/>
        </g>
      </g>
    </g>
    <g id="Mask_Group_1099418" data-name="Mask Group 1099418" clip-path="url(#clip-path)">
      <g id="licuadora-de-batidos_3_" data-name="licuadora-de-batidos (3)" transform="translate(717.966 8588.018)">
        <path id="Path_1260355" data-name="Path 1260355" d="M29.148,57.824a7.631,7.631,0,0,0-7.644,7.63V72.3H11.859V65.454a7.631,7.631,0,0,1,7.644-7.63Z" fill="#4b83c9"/>
        <path id="Path_1260356" data-name="Path 1260356" d="M51.752,65.454V72.3H21.5V65.454a7.631,7.631,0,0,1,7.644-7.63h14.96A7.631,7.631,0,0,1,51.752,65.454Z" fill="#64b0d9"/>
        <path id="Path_1260357" data-name="Path 1260357" d="M30.805,6.53A6.8,6.8,0,0,0,24,13.345H11.859A6.824,6.824,0,0,1,18.675,6.53Z" fill="#4b83c9"/>
        <path id="Path_1260358" data-name="Path 1260358" d="M51.752,13.345H24A6.805,6.805,0,0,1,30.82,6.53H44.951A6.811,6.811,0,0,1,51.752,13.345Z" fill="#64b0d9"/>
        <path id="Path_1260359" data-name="Path 1260359" d="M36.135,6.53H27.462V5.144a4.329,4.329,0,1,1,8.659,0V6.53Z" fill="#fcc368"/>
        <path id="Path_1260360" data-name="Path 1260360" d="M20.275,54.252H43.336v3.572H20.275Z" fill="#fcc368"/>
        <path id="Path_1260361" data-name="Path 1260361" d="M22.89,50.852H40.721v3.4H22.89Z" fill="#64b0d9"/>
        <path id="Path_1260362" data-name="Path 1260362" d="M27.462,50.852H20.275L11.859,13.345H24.3Z" fill="#e6e6e6"/>
        <path id="Path_1260363" data-name="Path 1260363" d="M39.307,13.345,36.135,50.852H27.462L24.3,13.345Z" fill="#c2c7cb"/>
        <path id="Path_1260364" data-name="Path 1260364" d="M51.752,13.345c-2.1,9.387-6.315,28.148-8.416,37.506H36.149l3.172-37.506Z" fill="#e6e6e6"/>
        <path id="Path_1260365" data-name="Path 1260365" d="M61.4,22.5v17.86a5.436,5.436,0,0,1-5.43,5.43H44.793a1.114,1.114,0,0,1-.314-.043l.643-2.843H55.967a2.549,2.549,0,0,0,2.543-2.543V22.5a2.549,2.549,0,0,0-2.543-2.543H50.58a1.114,1.114,0,0,1-.314-.043l.643-2.843h5.044A5.439,5.439,0,0,1,61.4,22.5Z" fill="#4b83c9"/>
        <path id="Path_1260366" data-name="Path 1260366" d="M36.063,65.068c-.171,5.63-8.33,5.615-8.516,0A4.258,4.258,0,0,1,36.063,65.068Z" fill="#fcc368"/>
        <g id="Group_1209253" data-name="Group 1209253">
          <path id="Path_1260367" data-name="Path 1260367" d="M55.91,16.289H51.823l.629-2.786a7.573,7.573,0,0,0-7.573-7.758H36.863a5.136,5.136,0,1,0-10.216,0H18.632a7.592,7.592,0,0,0-7.587,7.587c-.043.1,8.43,37.549,8.444,37.678a.778.778,0,0,0,.757.6h1.829v1.843H20.232a.768.768,0,0,0-.772.772v2.8a8.421,8.421,0,0,0-8.416,8.416V72.3a.768.768,0,0,0,.772.772H51.709a.768.768,0,0,0,.772-.772V65.454a8.421,8.421,0,0,0-8.416-8.416v-2.8a.768.768,0,0,0-.772-.772H41.45V51.623h1.843a.794.794,0,0,0,.757-.6l1-4.458H55.924a6.2,6.2,0,0,0,6.2-6.2V22.5A6.22,6.22,0,0,0,55.91,16.289Zm-5.072,4.444H55.91A1.781,1.781,0,0,1,57.681,22.5v17.86a1.781,1.781,0,0,1-1.772,1.772H46.036ZM28.191,5.144a3.58,3.58,0,1,1,7.116.6H28.191ZM18.617,7.3H44.879a6.046,6.046,0,0,1,5.987,5.258H12.631A6.057,6.057,0,0,1,18.617,7.3Zm16.76,42.764H28.133L25.1,14.117H38.421Zm-22.6-35.949H23.533l3.043,35.949h-5.73ZM50.923,65.468v6.058H12.588V65.468a6.86,6.86,0,0,1,6.858-6.858H44.065a6.851,6.851,0,0,1,6.858,6.858Zm-8.416-8.416H21V55.024h21.5Zm-2.615-3.586H23.6V51.623H39.893Zm2.772-3.4h-5.73L39.964,14.1H50.723C48.794,22.718,44.579,41.507,42.664,50.066Zm17.9-9.7a4.659,4.659,0,0,1-4.658,4.658H45.379l.3-1.329H55.91a3.317,3.317,0,0,0,3.315-3.315V22.518A3.317,3.317,0,0,0,55.91,19.2H51.18c.057-.243.243-1.114.3-1.329H55.91a4.659,4.659,0,0,1,4.658,4.658Z" fill="#231f20"/>
          <path id="Path_1260368" data-name="Path 1260368" d="M31.748,60.039a4.993,4.993,0,0,0-2.7.8l-.472-.543A.78.78,0,1,0,27.4,61.325l.472.529A5.058,5.058,0,0,0,31.748,70.1c6.658-.243,6.658-9.83,0-10.059Zm0,8.5a3.49,3.49,0,0,1-2.815-5.5l2.243,2.529a.78.78,0,1,0,1.172-1.029l-2.229-2.529a3.475,3.475,0,1,1,1.629,6.53Z" fill="#231f20"/>
        </g>
      </g>
    </g>
  </g>
</svg>
