<svg xmlns="http://www.w3.org/2000/svg" xmlns:xlink="http://www.w3.org/1999/xlink" width="90" height="80" viewBox="0 0 90 80">
  <defs>
    <clipPath id="clip-path">
      <rect id="Rectangle_411087" data-name="Rectangle 411087" width="72" height="71" transform="translate(1942 -2978)" fill="#fff" stroke="#707070" stroke-width="1" opacity="0"/>
    </clipPath>
  </defs>
  <g id="Group_1209238" data-name="Group 1209238" transform="translate(-1932.722 2982.556)">
    <g id="Group_1209243" data-name="Group 1209243">
      <g id="Group_1209238-2" data-name="Group 1209238" transform="translate(1126.941 -4970.556)">
        <g id="Group_1202749" data-name="Group 1202749" transform="translate(805.89 1987.713)">
          <ellipse id="Ellipse_12435" data-name="Ellipse 12435" cx="29" cy="28.5" rx="29" ry="28.5" transform="translate(31.891 23.287)" fill="#ffca49"/>
          <circle id="Ellipse_12436" data-name="Ellipse 12436" cx="16" cy="16" r="16" transform="translate(-0.109 0.287)" fill="#ffca49"/>
        </g>
      </g>
      <g id="Mask_Group_1099414" data-name="Mask Group 1099414" clip-path="url(#clip-path)">
        <g id="comida-sana_1_" data-name="comida-sana (1)" transform="translate(1942 -2976.341)">
          <path id="Path_1260298" data-name="Path 1260298" d="M70.939,37.757c0,9.491-6.135,17.258-13.633,17.258h-8a11.2,11.2,0,0,1-5.818-1.662c-5.1-3.07-7.815-9.441-7.815-15.6A15.869,15.869,0,0,1,39.951,26.6a15.638,15.638,0,0,0,3.473-5.547,19.384,19.384,0,0,0,1.129-4.9c.066-.666.1-1.342.1-2.023,0-6.024,3.9-10.953,8.654-10.953A7.846,7.846,0,0,1,59.418,6.4a12.524,12.524,0,0,1,2.542,7.736,17.792,17.792,0,0,0,4.7,12.465,14.294,14.294,0,0,1,3.113,4.87,17.283,17.283,0,0,1,1.162,6.29Zm0,0" fill="#35e298"/>
          <path id="Path_1260299" data-name="Path 1260299" d="M52.571,32.286a20.869,20.869,0,0,1-2.652,9.376l-6.43,11.691c-5.1-3.07-7.815-9.441-7.815-15.6A15.869,15.869,0,0,1,39.951,26.6a15.653,15.653,0,0,0,3.473-5.547,19.407,19.407,0,0,0,1.128-4.9,14.729,14.729,0,0,1,6.894,8.638,20.871,20.871,0,0,1,1.124,7.494Zm0,0" fill="#1ab975"/>
          <path id="Path_1260300" data-name="Path 1260300" d="M63.853,38.351A10.272,10.272,0,1,1,53.581,28.079,10.272,10.272,0,0,1,63.853,38.351Zm0,0" fill="#ae583e"/>
          <path id="Path_1260301" data-name="Path 1260301" d="M52.3,28.158a10.283,10.283,0,0,0-5.021,18.306l2.641-4.8a20.486,20.486,0,0,0,2.38-13.5Zm0,0" fill="#7c3f2c"/>
          <path id="Path_1260302" data-name="Path 1260302" d="M23.225,10.71c-.537-2.444-3.306-11.3-15-9.282a.523.523,0,0,0-.382.74c1.211,2.545,6.351,11.976,14.906,9.352a.693.693,0,0,0,.479-.81Zm0,0" fill="#1ed688"/>
          <path id="Path_1260303" data-name="Path 1260303" d="M22.746,11.519C14.191,14.144,9.052,4.713,7.84,2.167a.523.523,0,0,1,.382-.74,19.569,19.569,0,0,1,2.814-.288c1.795,3.166,5.812,8.693,11.831,8.267a13.4,13.4,0,0,1,.358,1.3.692.692,0,0,1-.479.809Zm0,0" fill="#1ab975"/>
          <path id="Path_1260304" data-name="Path 1260304" d="M43.877,41.662l-7.464,13.57a7.522,7.522,0,0,1-9.788,2.5,6.087,6.087,0,0,0-5.649,0,7.517,7.517,0,0,1-9.787-2.5L3.723,41.662A20.588,20.588,0,0,1,2.2,24.791C4.49,18.125,8.964,15.8,12.055,15a12.411,12.411,0,0,1,3.04-.417c.176,0,.27.005.27.005a12.1,12.1,0,0,1,3.971.664,11.471,11.471,0,0,1,3.348,1.829,1.716,1.716,0,0,0,2.232,0,11.454,11.454,0,0,1,3.347-1.829,12.1,12.1,0,0,1,3.971-.664s9.451-.6,13.169,10.208a20.575,20.575,0,0,1-1.528,16.87Zm0,0" fill="#c42d2d"/>
          <path id="Path_1260305" data-name="Path 1260305" d="M43.877,41.662l-7.464,13.57a7.522,7.522,0,0,1-9.788,2.5,6.087,6.087,0,0,0-5.649,0,7.592,7.592,0,0,1-2.969.836c-.057-.114-5.984-13.149-7.5-16.471C5.992,32.166,7.744,21.094,12.055,15a12.411,12.411,0,0,1,3.04-.417c.176,0,.27.005.27.005a12.1,12.1,0,0,1,3.971.664,11.471,11.471,0,0,1,3.348,1.829,1.716,1.716,0,0,0,2.232,0,11.454,11.454,0,0,1,3.347-1.829,12.1,12.1,0,0,1,3.971-.664s9.451-.6,13.169,10.208a20.575,20.575,0,0,1-1.528,16.87Zm0,0" fill="#f44545"/>
          <path id="Path_1260306" data-name="Path 1260306" d="M10.337,45.039a2.437,2.437,0,0,0-1.018,3.294,15.67,15.67,0,0,0,2.7,3.659l-8.131-.906a2.438,2.438,0,1,0-.54,4.845l8.131.906a15.679,15.679,0,0,0-3.438,2.976,2.437,2.437,0,1,0,3.7,3.168c2.786-3.257,7.834-4.653,12.108-4.793a2.436,2.436,0,0,0,.452-4.812c-.077-.018-7.8-1.879-10.673-7.318a2.438,2.438,0,0,0-3.293-1.018Zm0,0" fill="#1ab975"/>
          <path id="Path_1260307" data-name="Path 1260307" d="M70.669,60.993a6.177,6.177,0,0,1-6.128,5.493l-34.423.066a10.095,10.095,0,1,1,2.227-19.933l29.192,6.669,2.085.477,2.282.522a6.175,6.175,0,0,1,4.764,6.706Zm0,0" fill="#ffa90b"/>
          <path id="Path_1260308" data-name="Path 1260308" d="M70.621,59.28a6.169,6.169,0,0,1-4.9,2.425c-18.016.036-5.423.012-34.422.066A10.1,10.1,0,0,1,21.189,51.708a10.116,10.116,0,0,1,8.9-5.345,9.913,9.913,0,0,1,1.218.075,10.073,10.073,0,0,1,1.044.181l1.042.237c26.988,6.168,2.928.67,28.15,6.432l2.085.477,2.282.522a6.174,6.174,0,0,1,4.716,4.993Zm0,0" fill="#ffb52d"/>
          <path id="Path_1260309" data-name="Path 1260309" d="M3.783,52.141l.017,0Zm0,0"/>
          <path id="Path_1260310" data-name="Path 1260310" d="M3.824,52.146h0Zm0,0"/>
          <path id="Path_1260311" data-name="Path 1260311" d="M66.141,53.253l-.783-.18c7.592-6.22,9.209-20.029,2.059-27.225a16.838,16.838,0,0,1-4.4-11.717c0-6.624-4.357-12.014-9.714-12.014s-9.714,5.39-9.714,12.014a18.941,18.941,0,0,1-.516,4.4,13.794,13.794,0,0,0-18.215-2.738V2.282a1.061,1.061,0,1,0-2.121,0V6.447C19.572.732,13.808-.8,7.352.5A1.063,1.063,0,0,0,6.58,1.945a24.846,24.846,0,0,0,4.248,6.6c3.267,3.569,7.321,5.342,11.911,4.07v3.175c-6.229-4.329-16.66-2.775-20.946,7.1a1.061,1.061,0,0,0,1.946.844c3.922-9.031,13.3-9.761,18.273-5.843a2.777,2.777,0,0,0,3.575,0c5.662-4.46,15.457-2.519,18.813,7.239a19.58,19.58,0,0,1-1.688,16.436c-1.246,2.229-2.27,4.081-3.116,5.624-6.569-1.415-7.506-1.932-9.742-1.884a1.06,1.06,0,0,0,.043,2.12,9.051,9.051,0,0,1,1.283.068l-.637,5.713a1.061,1.061,0,0,0,2.109.235l.615-5.523,10.28,2.349-.3,2.725a1.061,1.061,0,1,0,2.108.235l.277-2.483,15.9,3.632-.819,7.354a1.061,1.061,0,0,0,2.108.235l.793-7.114,2.058.471a5.116,5.116,0,0,1-1.129,10.1l-10.856.021.386-3.459a1.061,1.061,0,0,0-2.108-.235l-.412,3.7-10.406.02.363-3.251a1.061,1.061,0,0,0-2.108-.235c-.09.81-.38,3.4-.388,3.49l-4.982.009.631-5.66a1.061,1.061,0,1,0-2.109-.235l-.657,5.9h-.038l-1.757,0a9.032,9.032,0,0,1-3.862-17.2,1.061,1.061,0,0,0-.91-1.917A11.131,11.131,0,0,0,20.479,50.8a13.2,13.2,0,0,1-5.912-5.236,3.5,3.5,0,0,0-6.59,1.622L4.654,41.143A19.523,19.523,0,0,1,2.533,27.563a1.061,1.061,0,1,0-2.078-.43A21.648,21.648,0,0,0,2.795,42.165L7.326,50.4l-3.321-.37a3.5,3.5,0,0,0-.775,6.953l5.5.612c-1.363,1.221-2.461,2.327-2.323,4.072a3.5,3.5,0,0,0,6.146,2,13.212,13.212,0,0,1,6.92-3.81A11.169,11.169,0,0,0,30.1,67.612l34.446-.066a7.237,7.237,0,0,0,1.6-14.293ZM9.123,2.353c7.053-.964,11.5,2.4,12.985,8.239C16.362,12.139,11.843,7.6,9.123,2.353ZM62.591,52.441l-20.836-4.76c.6-1.1,1.27-2.32,2.014-3.66a11.334,11.334,0,0,0,20.925-3.435,1.061,1.061,0,0,0-2.08-.416,9.213,9.213,0,0,1-17.59,1.592A21.914,21.914,0,0,0,47.6,31.348a9.224,9.224,0,0,1,14.982,5.043,1.061,1.061,0,0,0,2.073-.449,11.332,11.332,0,0,0-17.223-7.108,20.866,20.866,0,0,0-2.761-8.113,20.955,20.955,0,0,0,1.041-6.589c0-4.894,3.048-9.892,7.593-9.892,4.5,0,7.593,4.931,7.593,9.892a18.74,18.74,0,0,0,5.012,13.213C71.435,32.9,70.9,43.213,66.1,49.287a13.19,13.19,0,0,1-3.511,3.154Zm-43.572,5.33a15.4,15.4,0,0,0-8.081,4.52A1.377,1.377,0,0,1,8.845,60.5a14.674,14.674,0,0,1,3.207-2.775,1.061,1.061,0,0,0-.458-1.945l-8.13-.906A1.377,1.377,0,1,1,3.77,52.14h.007l.025,0h0l.025,0-.015,0,7.347.819c.337-.021,1.365.415,1.814-.506a1.062,1.062,0,0,0-.2-1.208,14.664,14.664,0,0,1-2.517-3.411,1.379,1.379,0,0,1,.574-1.861h0a1.376,1.376,0,0,1,1.86.576,15.357,15.357,0,0,0,6.9,6.157,11.272,11.272,0,0,0-.569,5.061Zm0,0"/>
        </g>
      </g>
    </g>
  </g>
</svg>
