<svg xmlns="http://www.w3.org/2000/svg" xmlns:xlink="http://www.w3.org/1999/xlink" width="90" height="80" viewBox="0 0 90 80">
  <defs>
    <clipPath id="clip-path">
      <rect id="Rectangle_411086" data-name="Rectangle 411086" width="71" height="71" transform="translate(2749 -3010)" fill="#fff" stroke="#707070" stroke-width="1" opacity="0"/>
    </clipPath>
  </defs>
  <g id="Group_1209216" data-name="Group 1209216" transform="translate(-2739.609 3014.555)">
    <g id="Group_1209215" data-name="Group 1209215">
      <g id="Group_1209200" data-name="Group 1209200" transform="translate(1933.828 -5002.555)">
        <g id="Group_1202749" data-name="Group 1202749" transform="translate(805.89 1987.713)">
          <ellipse id="Ellipse_12435" data-name="Ellipse 12435" cx="29" cy="28.5" rx="29" ry="28.5" transform="translate(31.891 23.287)" fill="#ffca49"/>
          <circle id="Ellipse_12436" data-name="Ellipse 12436" cx="16" cy="16" r="16" transform="translate(-0.109 0.287)" fill="#ffca49"/>
        </g>
      </g>
    </g>
    <g id="Mask_Group_1099413" data-name="Mask Group 1099413" clip-path="url(#clip-path)">
      <g id="colador" transform="translate(2749 -3010)">
        <g id="Group_1209236" data-name="Group 1209236">
          <g id="Group_1209217" data-name="Group 1209217">
            <path id="Path_1260252" data-name="Path 1260252" d="M69.855,24.048v4.581a4.581,4.581,0,0,1-4.581,4.581h-2.8a20.637,20.637,0,0,0,.511-4.581h2.29a4.578,4.578,0,0,0,4.581-4.581Z" fill="#969faa"/>
          </g>
          <g id="Group_1209218" data-name="Group 1209218">
            <path id="Path_1260253" data-name="Path 1260253" d="M1.145,24.048v4.581A4.581,4.581,0,0,0,5.726,33.21h2.8a20.637,20.637,0,0,1-.511-4.581H5.726a4.578,4.578,0,0,1-4.581-4.581Z" fill="#969faa"/>
          </g>
          <g id="Group_1209219" data-name="Group 1209219">
            <path id="Path_1260254" data-name="Path 1260254" d="M69.855,24.048a4.564,4.564,0,0,1-.613,2.29,4.578,4.578,0,0,0-3.968-2.29h-2.29c0-1.47-1.847-2.833-4.991-3.949h0a5.477,5.477,0,0,0,.218-.631h7.066A4.581,4.581,0,0,1,69.855,24.048Z" fill="#aab2bd"/>
          </g>
          <g id="Group_1209220" data-name="Group 1209220">
            <path id="Path_1260255" data-name="Path 1260255" d="M8.629,19.468a4.6,4.6,0,0,0,1.814,1.754c-1.559.862-2.426,1.819-2.426,2.827H5.726a4.578,4.578,0,0,0-3.968,2.29,4.582,4.582,0,0,1,3.968-6.871Z" fill="#aab2bd"/>
          </g>
          <g id="Group_1209221" data-name="Group 1209221">
            <path id="Path_1260256" data-name="Path 1260256" d="M35.5,56.113H67.565a2.29,2.29,0,1,1,0,4.581H49.242a2.29,2.29,0,1,0,0,4.581h4.581a2.29,2.29,0,1,1,0,4.581H17.177a2.29,2.29,0,1,1,0-4.581h4.581a2.29,2.29,0,1,0,0-4.581H3.435a2.29,2.29,0,1,1,0-4.581H35.5Z" fill="#69d6f4"/>
          </g>
          <g id="Group_1209222" data-name="Group 1209222">
            <path id="Path_1260257" data-name="Path 1260257" d="M62.473,33.21a20.591,20.591,0,0,1-20.1,16.032H28.629A20.591,20.591,0,0,1,8.016,28.629c0,3.795,12.3,6.871,27.484,6.871s27.484-3.076,27.484-6.871A20.637,20.637,0,0,1,62.473,33.21Z" fill="#aab2bd"/>
          </g>
          <g id="Group_1209223" data-name="Group 1209223">
            <path id="Path_1260258" data-name="Path 1260258" d="M20.938,29.876a89.459,89.459,0,0,0,10.023.95c1.476.062,2.993.093,4.539.093,1.941,0,3.835-.05,5.663-.146A81.094,81.094,0,0,0,52.726,29.4c6.255-1.258,10.258-3.189,10.258-5.354v4.581c0,3.795-12.3,6.871-27.484,6.871S8.016,32.424,8.016,28.629V24.048c0,2.458,5.16,4.614,12.922,5.827Z" fill="#ccd1d9"/>
          </g>
          <g id="Group_1209224" data-name="Group 1209224">
            <path id="Path_1260259" data-name="Path 1260259" d="M62.984,24.048c0,2.164-4,4.1-10.258,5.354l4.961-8.682a5.3,5.3,0,0,0,.3-.621h0C61.137,21.216,62.984,22.578,62.984,24.048Z" fill="#e6e9ed"/>
          </g>
          <g id="Group_1209225" data-name="Group 1209225">
            <path id="Path_1260260" data-name="Path 1260260" d="M37.022,17.187l-2.863,6.442-5.354-6.247c2.143-.133,4.386-.2,6.695-.2q.767,0,1.522.01Z" fill="#e6e9ed"/>
          </g>
          <g id="Group_1209226" data-name="Group 1209226">
            <path id="Path_1260261" data-name="Path 1260261" d="M18.66,23.8l2.277,6.072c-7.761-1.214-12.922-3.37-12.922-5.827,0-1.008.867-1.965,2.426-2.827a4.571,4.571,0,0,0,2.154.537,4.731,4.731,0,0,0,.591-.039A4.583,4.583,0,0,0,18.66,23.8Z" fill="#e6e9ed"/>
          </g>
          <g id="Group_1209227" data-name="Group 1209227">
            <path id="Path_1260262" data-name="Path 1260262" d="M62.984,10.191a2.172,2.172,0,0,1-1.1,1.887l-4.614,2.637a5.052,5.052,0,0,0-.462-.527,5.569,5.569,0,0,0-.444-.4l3.609-5.773h.832a2.174,2.174,0,0,1,2.174,2.174Z" fill="#a0d468"/>
          </g>
          <g id="Group_1209228" data-name="Group 1209228">
            <path id="Path_1260263" data-name="Path 1260263" d="M60.694,6.062a2.817,2.817,0,0,1-.429,1.494l-.286.459-3.609,5.773a5.393,5.393,0,0,0-3.009-1.178h0l.567-1.887h0l1.625-5.414a2.626,2.626,0,0,1,5.142.754Z" fill="#a0d468"/>
          </g>
          <g id="Group_1209229" data-name="Group 1209229">
            <path id="Path_1260264" data-name="Path 1260264" d="M53.927,10.722h0L53.36,12.61h0c-.127-.01-.256-.014-.386-.014a5.754,5.754,0,0,0-1.663.246L49.4,8.374a1.91,1.91,0,0,1-.084-.24L50.8,5.757A1.961,1.961,0,0,1,53.05,7.215Z" fill="#a0d468"/>
          </g>
          <g id="Group_1209230" data-name="Group 1209230">
            <path id="Path_1260265" data-name="Path 1260265" d="M51.532,3.772A2.817,2.817,0,0,1,51.1,5.266l-.306.491L49.311,8.134l-2.1,3.365c-.04-.033-.082-.064-.123-.1A5.388,5.388,0,0,0,44.2,10.321h0l.567-1.887h0L46.39,3.018a2.626,2.626,0,0,1,5.142.754Z" fill="#a0d468"/>
          </g>
          <g id="Group_1209231" data-name="Group 1209231">
            <path id="Path_1260266" data-name="Path 1260266" d="M44.766,8.431h0L44.2,10.319h0c-.127-.01-.256-.014-.386-.014a5.754,5.754,0,0,0-1.663.246L40.234,6.084a1.917,1.917,0,0,1-.153-.747,1.9,1.9,0,0,1,1.9-1.9,1.966,1.966,0,0,1,1.907,1.489Z" fill="#a0d468"/>
          </g>
          <g id="Group_1209232" data-name="Group 1209232">
            <path id="Path_1260267" data-name="Path 1260267" d="M28.805,17.382l5.354,6.247-3.2,7.2a89.459,89.459,0,0,1-10.023-.95L18.66,23.8h0a4.59,4.59,0,0,0,2.84-2.819,4.58,4.58,0,0,0,7.129-3.806Z" fill="#a0d468"/>
          </g>
          <g id="Group_1209233" data-name="Group 1209233">
            <path id="Path_1260268" data-name="Path 1260268" d="M30.881,8.607a4.581,4.581,0,0,1-2.252,8.57A4.58,4.58,0,0,1,21.5,20.984,4.59,4.59,0,0,1,18.66,23.8a4.583,4.583,0,0,1-5.472-2.083,4.731,4.731,0,0,1-.591.039A4.58,4.58,0,0,1,8.63,14.887a4.58,4.58,0,0,1,1.715-6.28,4.732,4.732,0,0,1-.039-.591A4.58,4.58,0,0,1,17.435,4.21a4.581,4.581,0,0,1,8.312-.736,4.732,4.732,0,0,1,.591-.039,4.581,4.581,0,0,1,4.581,4.581,4.732,4.732,0,0,1-.039.591Z" fill="#a0d468"/>
          </g>
          <g id="Group_1209234" data-name="Group 1209234">
            <path id="Path_1260269" data-name="Path 1260269" d="M46.952,17.75l-2.083,4.685-3.706,8.338c-1.828.1-3.722.146-5.663.146-1.546,0-3.063-.031-4.539-.093l3.2-7.2,2.863-6.442,1.543-3.47a5.742,5.742,0,0,1,5.248-3.411c.13,0,.259,0,.386.014A5.388,5.388,0,0,1,47.085,11.4c.042.031.083.063.123.1a5.448,5.448,0,0,1,1.808,2.68,5.715,5.715,0,0,0-1.29,1.829Z" fill="#fc6e51"/>
          </g>
          <g id="Group_1209235" data-name="Group 1209235">
            <path id="Path_1260270" data-name="Path 1260270" d="M58.4,18.026a5.421,5.421,0,0,1-.182,1.393l-.013.049a5.478,5.478,0,0,1-.218.631,5.3,5.3,0,0,1-.3.621L52.726,29.4a81.094,81.094,0,0,1-11.563,1.371l3.706-8.338,2.083-4.685.774-1.742A5.742,5.742,0,0,1,52.974,12.6c.13,0,.259,0,.386.014a5.393,5.393,0,0,1,3.009,1.178,5.57,5.57,0,0,1,.444.4,5.053,5.053,0,0,1,.462.527A5.4,5.4,0,0,1,58.4,18.026Z" fill="#ff826e"/>
          </g>
        </g>
        <g id="Group_1209237" data-name="Group 1209237">
          <path id="Path_1260271" data-name="Path 1260271" d="M67.565,54.968H53.823v2.29H67.565a1.145,1.145,0,1,1,0,2.29H49.242a3.435,3.435,0,0,0,0,6.871h4.581a1.145,1.145,0,1,1,0,2.29H17.177a1.145,1.145,0,1,1,0-2.29h4.581a3.435,3.435,0,0,0,0-6.871H3.435a1.145,1.145,0,1,1,0-2.29H17.177v-2.29H3.435a3.435,3.435,0,1,0,0,6.871H21.758a1.145,1.145,0,1,1,0,2.29H17.177a3.435,3.435,0,0,0,0,6.871H53.823a3.435,3.435,0,0,0,0-6.871H49.242a1.145,1.145,0,1,1,0-2.29H67.565a3.435,3.435,0,1,0,0-6.871Z"/>
          <path id="Path_1260272" data-name="Path 1260272" d="M65.274,18.323H59.539c0-.1.01-.2.01-.3a6.533,6.533,0,0,0-.679-2.9l3.587-2.05A3.319,3.319,0,0,0,61.724,7a3.962,3.962,0,0,0,.115-.938,3.772,3.772,0,0,0-7.384-1.084l-.449,1.5A3.1,3.1,0,0,0,52.513,4.9a3.963,3.963,0,0,0,.165-1.129,3.772,3.772,0,0,0-7.384-1.084l-.449,1.5a3.106,3.106,0,0,0-2.863-1.9,3.046,3.046,0,0,0-2.8,4.245l1.458,3.4a6.887,6.887,0,0,0-3.121,3.314l-1.237,2.784c-1.033-.007-2.067,0-3.094.021a5.719,5.719,0,0,0-1.123-8.04h0A5.732,5.732,0,0,0,26.339,2.29h0a5.725,5.725,0,0,0-9.417.372A5.729,5.729,0,0,0,9.161,8.016h0a5.723,5.723,0,0,0-1.812,6.87,5.73,5.73,0,0,0-.363,3.435H5.726A5.732,5.732,0,0,0,0,24.048v4.581a5.732,5.732,0,0,0,5.726,5.726H7.637a21.783,21.783,0,0,0,6.1,10.126v8.2h2.29V46.36a21.737,21.737,0,0,0,4.581,2.5v6.111H22.9V49.621a21.706,21.706,0,0,0,5.726.766h3.435v2.29h2.29v-2.29h4.581v4.581H35.5a3.435,3.435,0,0,0,0,6.871h4.581a1.145,1.145,0,1,1,0,2.29H29.774v2.29H40.081a3.435,3.435,0,0,0,0-6.871H35.5a1.145,1.145,0,0,1,0-2.29H50.387v-2.29H41.226V50.387h1.145a21.706,21.706,0,0,0,5.726-.766v3.056h2.29V48.857a21.744,21.744,0,0,0,4.581-2.5v4.027h2.29V44.481a21.781,21.781,0,0,0,6.1-10.126h1.911A5.732,5.732,0,0,0,71,28.629V24.048a5.732,5.732,0,0,0-5.726-5.726ZM10.516,22.51A5.693,5.693,0,0,0,12.6,22.9h0a5.713,5.713,0,0,0,5.341,2.239l1.226,3.268c-.987-.187-1.931-.392-2.821-.614-5.67-1.417-7.182-3.023-7.182-3.747,0-.431.5-.99,1.355-1.538Zm18.706-2.881,3.6,4.2-2.588,5.822q-.5-.024-.985-.053l-3.478-6.956a5.755,5.755,0,0,0,3.453-3.01Zm-5.905,3.227L26.59,29.4c-1.674-.145-3.286-.33-4.816-.555L20.1,24.386a5.739,5.739,0,0,0,1.913-1.854A5.679,5.679,0,0,0,23.317,22.856ZM6.871,27.484H5.726a3.427,3.427,0,0,1-2.558-1.146,3.449,3.449,0,0,1,2.558-1.144H6.871Zm2.29-.042a22.065,22.065,0,0,0,6.627,2.576A85.082,85.082,0,0,0,35.5,32.065a85.082,85.082,0,0,0,19.712-2.047,22.064,22.064,0,0,0,6.627-2.576v1.187c0,.725-1.513,2.33-7.182,3.748A82.771,82.771,0,0,1,35.5,34.355a82.771,82.771,0,0,1-19.156-1.978c-5.67-1.417-7.182-3.023-7.182-3.748ZM48.773,16.472a4.6,4.6,0,0,1,4.2-2.73,4.284,4.284,0,0,1,3.72,6.41l-4.7,8.229a77.31,77.31,0,0,1-9.016,1.135Zm.707-4.066a6.582,6.582,0,0,0-.808-1.088l.438-.7.691,1.612q-.163.085-.322.178ZM61.839,24.048c0,.709-1.45,2.261-6.823,3.655l3.526-6.17C60.954,22.523,61.839,23.485,61.839,24.048Zm2.29,1.145h1.145a3.449,3.449,0,0,1,2.558,1.144,3.427,3.427,0,0,1-2.558,1.146H64.129Zm4.581-1.145s0,0,0,0a5.735,5.735,0,0,0-3.435-1.15H63.9a5.28,5.28,0,0,0-2.136-2.29h3.511A3.439,3.439,0,0,1,68.71,24.048ZM61.32,11.083l-2.97,1.7,2.262-3.619h.2a1.029,1.029,0,0,1,.51,1.922ZM56.648,5.636a1.481,1.481,0,0,1,2.9.426,1.673,1.673,0,0,1-.255.888L56.013,12.2a6.522,6.522,0,0,0-1.189-.481Zm-4.141,5.832q-.261.018-.517.055l-1.4-3.271.832-1.331a.82.82,0,0,1,.518.573l.8,3.2ZM47.487,3.346a1.481,1.481,0,0,1,2.9.426,1.673,1.673,0,0,1-.255.888L46.849,9.914a6.611,6.611,0,0,0-1.187-.483Zm-6.2,2.287a.755.755,0,0,1,.694-1.053.82.82,0,0,1,.8.622l.8,3.2-.232.773q-.261.018-.517.055Zm-1.676,8.549a4.6,4.6,0,0,1,4.2-2.73,4.315,4.315,0,0,1,3.879,2.469,6.869,6.869,0,0,0-1.012,1.621l-.288.648-4.654-2.327-1.024,2.049,4.747,2.373-1.151,2.59-4.862-2.431-1.024,2.049,4.955,2.478L40.4,29.665c-1.6.072-3.24.11-4.9.11q-1.414,0-2.8-.036Zm-5.762,7.326-2.656-3.1c1.342-.053,2.7-.082,4.071-.085ZM9.622,14.314A3.433,3.433,0,0,1,10.91,9.6l.671-.379-.1-.764a3.435,3.435,0,0,1,5.316-3.3l1.229.824.49-1.4a3.435,3.435,0,0,1,6.234-.55l.379.671.764-.1a3.428,3.428,0,0,1,3.851,3.85l-.1.764.671.379a3.435,3.435,0,0,1-1.687,6.428H27.484v1.145a3.436,3.436,0,0,1-5.346,2.855l-1.229-.824-.49,1.4a3.435,3.435,0,0,1-6.234.55l-.379-.671-.764.1a3.434,3.434,0,0,1-3.42-5.122l.332-.574Zm-3.9,6.3H8.019a5.769,5.769,0,0,0,.466.543A4.545,4.545,0,0,0,7.1,22.9H5.726a5.735,5.735,0,0,0-3.435,1.15s0,0,0,0a3.439,3.439,0,0,1,3.435-3.435Zm0,11.452A3.439,3.439,0,0,1,2.29,28.629v0a5.7,5.7,0,0,0,3.435,1.148H6.9a21.758,21.758,0,0,0,.242,2.29ZM42.371,48.1H28.629A19.5,19.5,0,0,1,9.5,32.234,23.385,23.385,0,0,0,15.788,34.6,85.088,85.088,0,0,0,35.5,36.645,85.082,85.082,0,0,0,55.212,34.6,23.38,23.38,0,0,0,61.5,32.234,19.5,19.5,0,0,1,42.371,48.1Zm22.9-16.032H63.857a21.757,21.757,0,0,0,.242-2.29h1.175a5.7,5.7,0,0,0,3.435-1.148v0A3.439,3.439,0,0,1,65.274,32.065Z"/>
          <circle id="Ellipse_12626" data-name="Ellipse 12626" cx="1.145" cy="1.145" r="1.145" transform="translate(32.065 38.935)"/>
          <circle id="Ellipse_12627" data-name="Ellipse 12627" cx="1.145" cy="1.145" r="1.145" transform="translate(32.065 43.516)"/>
          <circle id="Ellipse_12628" data-name="Ellipse 12628" cx="1.145" cy="1.145" r="1.145" transform="translate(27.484 38.935)"/>
          <circle id="Ellipse_12629" data-name="Ellipse 12629" cx="1.145" cy="1.145" r="1.145" transform="translate(27.484 43.516)"/>
          <circle id="Ellipse_12630" data-name="Ellipse 12630" cx="1.145" cy="1.145" r="1.145" transform="translate(22.903 38.935)"/>
          <circle id="Ellipse_12631" data-name="Ellipse 12631" cx="1.145" cy="1.145" r="1.145" transform="translate(18.323 37.79)"/>
          <circle id="Ellipse_12632" data-name="Ellipse 12632" cx="1.145" cy="1.145" r="1.145" transform="translate(18.323 42.371)"/>
          <circle id="Ellipse_12633" data-name="Ellipse 12633" cx="1.145" cy="1.145" r="1.145" transform="translate(13.742 36.645)"/>
          <circle id="Ellipse_12634" data-name="Ellipse 12634" cx="1.145" cy="1.145" r="1.145" transform="translate(22.903 43.516)"/>
          <circle id="Ellipse_12635" data-name="Ellipse 12635" cx="1.145" cy="1.145" r="1.145" transform="translate(36.645 38.935)"/>
          <circle id="Ellipse_12636" data-name="Ellipse 12636" cx="1.145" cy="1.145" r="1.145" transform="translate(36.645 43.516)"/>
          <circle id="Ellipse_12637" data-name="Ellipse 12637" cx="1.145" cy="1.145" r="1.145" transform="translate(41.226 38.935)"/>
          <circle id="Ellipse_12638" data-name="Ellipse 12638" cx="1.145" cy="1.145" r="1.145" transform="translate(41.226 43.516)"/>
          <circle id="Ellipse_12639" data-name="Ellipse 12639" cx="1.145" cy="1.145" r="1.145" transform="translate(45.806 38.935)"/>
          <circle id="Ellipse_12640" data-name="Ellipse 12640" cx="1.145" cy="1.145" r="1.145" transform="translate(50.387 37.79)"/>
          <circle id="Ellipse_12641" data-name="Ellipse 12641" cx="1.145" cy="1.145" r="1.145" transform="translate(50.387 42.371)"/>
          <circle id="Ellipse_12642" data-name="Ellipse 12642" cx="1.145" cy="1.145" r="1.145" transform="translate(54.968 36.645)"/>
          <circle id="Ellipse_12643" data-name="Ellipse 12643" cx="1.145" cy="1.145" r="1.145" transform="translate(45.806 43.516)"/>
          <path id="Path_1260273" data-name="Path 1260273" d="M25.194,52.677h2.29v4.581h-2.29Z"/>
          <path id="Path_1260274" data-name="Path 1260274" d="M51.508,15.754H53.8v5.119H51.508Z" transform="translate(12.731 57.245) rotate(-63.435)"/>
          <path id="Path_1260275" data-name="Path 1260275" d="M49.218,20.333h2.289v5.119H49.218Z" transform="translate(7.368 57.728) rotate(-63.435)"/>
          <path id="Path_1260276" data-name="Path 1260276" d="M18.323,18.323a4.573,4.573,0,0,0,2.29-.614,4.573,4.573,0,0,0,2.29.614v-2.29a2.285,2.285,0,0,1-1.526-.583l-.764-.684-.764.684a2.29,2.29,0,1,1-2.192-3.9l.586-.178.178-.586a2.291,2.291,0,0,1,4.384,0l.178.586.586.178a2.306,2.306,0,0,1,1.625,2.192h2.29a4.55,4.55,0,0,0-2.695-4.176,4.583,4.583,0,0,0-8.352,0,4.582,4.582,0,0,0,1.886,8.757Z"/>
        </g>
      </g>
    </g>
  </g>
</svg>
