<svg xmlns="http://www.w3.org/2000/svg" xmlns:xlink="http://www.w3.org/1999/xlink" width="90" height="80" viewBox="0 0 90 80">
  <defs>
    <clipPath id="clip-path">
      <rect id="Rectangle_411090" data-name="Rectangle 411090" width="70" height="73" transform="translate(2533 -2971)" fill="#fff" stroke="#707070" stroke-width="1" opacity="0"/>
    </clipPath>
  </defs>
  <g id="Group_1209248" data-name="Group 1209248" transform="translate(-2523.223 2974.556)">
    <g id="Group_1209248-2" data-name="Group 1209248" transform="translate(1717.442 -4962.556)">
      <g id="Group_1202749" data-name="Group 1202749" transform="translate(805.89 1987.713)">
        <ellipse id="Ellipse_12435" data-name="Ellipse 12435" cx="29" cy="28.5" rx="29" ry="28.5" transform="translate(31.891 23.287)" fill="#ffca49"/>
        <circle id="Ellipse_12436" data-name="Ellipse 12436" cx="16" cy="16" r="16" transform="translate(-0.109 0.287)" fill="#ffca49"/>
      </g>
    </g>
    <g id="Mask_Group_1099416" data-name="Mask Group 1099416" clip-path="url(#clip-path)">
      <g id="ensalada" transform="translate(2533 -2970.21)">
        <path id="Path_1260312" data-name="Path 1260312" d="M68.6,20.751c-.268.711-.5,1.387-.673,2.021C66.677,27.409,67,32.881,64.2,35.633c-3,2.953-8.059,1.779-11.731,2.948-4.026,1.282-7.909,5.2-11.286,4.851a12.57,12.57,0,0,1-3.306-.763c-3.327-1.314-4.335-3.949-2.51-6.558,1.423-2.034,1.044-6.966,3.572-9.6,1.91-1.99,6.11-1.229,8.713-3.256,2.208-1.72,3.1-6.537,5.839-8.108,2.417-1.386,6.242.672,9.1-.482.063-.026.128-.053.193-.083a4.3,4.3,0,0,1,5.822,2.47,5.061,5.061,0,0,1,0,3.7Zm0,0" fill="#1ed688"/>
        <path id="Path_1260313" data-name="Path 1260313" d="M68.6,20.751c-.268.711-.5,1.387-.673,2.021C66.677,27.409,67,32.881,64.2,35.633c-3,2.953-8.059,1.779-11.731,2.948-4.026,1.282-7.909,5.2-11.286,4.851a12.57,12.57,0,0,1-3.306-.763,3.959,3.959,0,0,1,.669-3.78c1.424-2.034,1.043-6.966,3.573-9.6,1.909-1.989,6.11-1.227,8.712-3.254,2.208-1.72,3.1-6.537,5.838-8.109,2.418-1.385,6.242.673,9.1-.481.065-.025.129-.053.194-.083a4.207,4.207,0,0,1,2.643-.307,5.061,5.061,0,0,1,0,3.7Zm0,0" fill="#35e298"/>
        <path id="Path_1260314" data-name="Path 1260314" d="M34.887,48.553c-2.469-.259-6.6,2.46-10.129,1.523-2.667-.708-4.034-4.751-7.068-6.047-2.572-1.1-7.219.456-9.921-1.181C5.386,41.4,5.335,37.06,2.941,35.12c-.053-.044-.108-.087-.165-.129a4.437,4.437,0,0,1,.771-7.481,5.3,5.3,0,0,1,1.8-.6c.75-.109,1.456-.233,2.095-.39,4.663-1.152,9.3-4.079,13.059-2.963,4.037,1.2,5.459,6.189,8.261,8.835,3.07,2.9,8.381,4.4,9.708,7.526a14.425,14.425,0,0,1,.6,1.683c1.279,4.472-.577,7.33-4.187,6.951Zm0,0" fill="#1ab975"/>
        <path id="Path_1260315" data-name="Path 1260315" d="M39.075,41.6a4.571,4.571,0,0,1-2.51.369c-2.47-.259-6.6,2.46-10.129,1.524-2.667-.707-4.034-4.751-7.068-6.047-2.573-1.1-7.219.457-9.921-1.181-2.382-1.443-2.434-5.787-4.827-7.728-.053-.044-.108-.086-.166-.129a4.4,4.4,0,0,1-.906-.9,5.3,5.3,0,0,1,1.8-.6c.75-.109,1.456-.233,2.095-.39,4.663-1.152,9.3-4.079,13.059-2.963,4.037,1.2,5.459,6.189,8.261,8.835,3.07,2.9,8.381,4.4,9.708,7.526a14.425,14.425,0,0,1,.6,1.683Zm0,0" fill="#35e298"/>
        <path id="Path_1260316" data-name="Path 1260316" d="M29.027,6.307a5.257,5.257,0,1,1-5.255-5.255,5.232,5.232,0,0,1,5.255,5.255Zm0,0" fill="#d63030"/>
        <path id="Path_1260317" data-name="Path 1260317" d="M41.768,16.521a5.254,5.254,0,0,1-.515,2.274h0A5.255,5.255,0,1,1,35.326,11.4h0a5.258,5.258,0,0,1,6.44,5.12Zm0,0" fill="#fb5858"/>
        <path id="Path_1260318" data-name="Path 1260318" d="M29.027,6.307A5.232,5.232,0,0,1,28.51,8.58a5.257,5.257,0,0,1-5.922-7.394,5.257,5.257,0,0,1,6.439,5.12Zm0,0" fill="#f44545"/>
        <path id="Path_1260319" data-name="Path 1260319" d="M41.768,16.521a5.254,5.254,0,0,1-.515,2.274h0A5.259,5.259,0,0,1,35.326,11.4h0a5.258,5.258,0,0,1,6.44,5.12Zm0,0" fill="#fc7979"/>
        <path id="Path_1260320" data-name="Path 1260320" d="M63.28,45.983A24.377,24.377,0,0,1,38.9,70.358H34.122A24.376,24.376,0,0,1,9.746,45.983Zm0,0" fill="#0a66ea"/>
        <path id="Path_1260321" data-name="Path 1260321" d="M63.28,45.983a24.261,24.261,0,0,1-4.489,14.1,24.262,24.262,0,0,1-14.632,4.878H39.376A24.383,24.383,0,0,1,15.6,45.983Zm0,0" fill="#2476ed"/>
        <path id="Path_1260322" data-name="Path 1260322" d="M67.491,44.348a3.763,3.763,0,0,1-3.765,3.764H9.3a3.764,3.764,0,0,1,0-7.528H63.726a3.76,3.76,0,0,1,3.765,3.765Zm0,0" fill="#0956c6"/>
        <path id="Path_1260323" data-name="Path 1260323" d="M67.424,43.637H13.309a3.765,3.765,0,0,1-3.7-3.054H63.726a3.765,3.765,0,0,1,3.7,3.054Zm0,0" fill="#0a66ea"/>
        <path id="Path_1260324" data-name="Path 1260324" d="M69.587,21.122c1.495-3.969-1.266-7.983-5.017-7.983a5.621,5.621,0,0,0-2.378.553c-2.524,1.019-6.4-1.076-9.227.544-1.77,1.015-2.786,2.984-3.77,4.887-1.779,3.452-2.162,3.932-6.288,4.729-4.243.816-5.974,1.568-7.4,8.383a14.416,14.416,0,0,1-.787,2.881c-4.721-2.841-5.174-2.861-7.783-6.824-1.5-2.284-3.2-4.872-6.138-5.743C16.118,21.158,11.182,25,5.2,25.869c-5.169.755-7.031,6.994-3.052,9.964,1.656,1.294,2.031,3.736,3.177,5.8A4.815,4.815,0,0,0,8.89,49.147,25.464,25.464,0,0,0,34.122,71.41c3.218-.2,8.361.8,15.044-2.156A25.33,25.33,0,0,0,57.428,63.4,1.052,1.052,0,0,0,55.9,61.96,23.107,23.107,0,0,1,38.9,69.306H34.122A23.358,23.358,0,0,1,11.014,49.164h6.371a1.052,1.052,0,1,0,0-2.1c-.017,0-8.178.046-8.671-.065a2.712,2.712,0,0,1,.585-5.36H63.726a2.712,2.712,0,1,1,0,5.424H21.594a1.052,1.052,0,1,0,0,2.1H62.01a23.159,23.159,0,0,1-3.62,9.641,1.052,1.052,0,0,0,1.756,1.158,25.242,25.242,0,0,0,3.989-10.818,4.816,4.816,0,0,0-.409-9.615H52.961c3.5-1.026,8.692.077,11.974-3.148,3.478-3.418,2.52-9.61,4.651-15.261ZM17.25,39.531a6.374,6.374,0,0,0,.934-1.615l4.806,1.615Zm12.349,0-4.687-1.574a7.9,7.9,0,0,0-3.467-6.337,1.052,1.052,0,1,0-1.186,1.738,5.8,5.8,0,0,1,2.481,3.871L13.4,34.093a7.92,7.92,0,0,0-3.463-6.142A1.052,1.052,0,0,0,8.754,29.69,5.793,5.793,0,0,1,11.2,33.353l-2.79-.937a1.051,1.051,0,1,0-.67,1.993l8.452,2.839a4.11,4.11,0,0,1-2.5,2.284H9.3a4.791,4.791,0,0,0-2.369.624C6,38.241,5.441,35.686,3.406,34.148c-2.5-1.872-1.175-5.716,2.1-6.2,6.1-.887,10.948-4.5,14.7-3.385,3.557,1.055,4.943,5.855,7.837,8.592,2.8,2.645,7.257,4.153,8.983,6.374H29.6Zm22.549-1.952a20.889,20.889,0,0,0-4.094,1.952H41.8l7.663-7.017a7.876,7.876,0,0,0,7.224.035,1.052,1.052,0,1,0-.946-1.879,5.8,5.8,0,0,1-4.587.3h0l7.265-6.652a7.894,7.894,0,0,0,7.051-.056,1.052,1.052,0,0,0-.946-1.879,5.79,5.79,0,0,1-4.387.364l2.17-1.988a1.052,1.052,0,0,0-1.419-1.552l-6.576,6.021a3.924,3.924,0,0,1-.8-3.1,1.052,1.052,0,0,0-2.074-.354,6.034,6.034,0,0,0,1.325,4.877L44.793,33.94h0a3.94,3.94,0,0,1-.989-3.323,1.052,1.052,0,0,0-2.074-.354,6.064,6.064,0,0,0,1.512,5.094l-4.024,3.685a8.558,8.558,0,0,0-2.713-2.79c1.283-2.4,1.063-6.8,3.19-9.013,1.551-1.616,5.8-.974,8.6-3.153a11.736,11.736,0,0,0,2.769-4c1.612-3.122,2.444-4.388,4.674-4.388s4.96.965,7.473-.157c2.849-1.284,5.572,1.739,4.405,4.836-2.171,5.753-1.367,11.762-4.158,14.5-2.654,2.608-7.494,1.483-11.312,2.7Zm0,0"/>
        <path id="Path_1260325" data-name="Path 1260325" d="M23.773,12.613a6.307,6.307,0,1,0-6.307-6.307A6.314,6.314,0,0,0,23.773,12.613Zm0-10.509a4.2,4.2,0,1,1-4.2,4.2,4.207,4.207,0,0,1,4.2-4.2Zm0,0"/>
        <path id="Path_1260326" data-name="Path 1260326" d="M36.513,22.828a6.307,6.307,0,1,0-2.7-12.006,1.052,1.052,0,0,0,.9,1.9,4.2,4.2,0,1,1-2.18,2.446,1.052,1.052,0,0,0-1.992-.677,6.315,6.315,0,0,0,5.973,8.336Zm0,0"/>
      </g>
    </g>
  </g>
</svg>
