<svg xmlns="http://www.w3.org/2000/svg" xmlns:xlink="http://www.w3.org/1999/xlink" width="90" height="80" viewBox="0 0 90 80">
  <defs>
    <clipPath id="clip-path">
      <rect id="Rectangle_411089" data-name="Rectangle 411089" width="74" height="71" transform="translate(1665 -3122)" fill="#fff" stroke="#707070" stroke-width="1" opacity="0"/>
    </clipPath>
  </defs>
  <g id="Group_1209244" data-name="Group 1209244" transform="translate(-1657 3127)">
    <g id="Group_1209245" data-name="Group 1209245">
      <g id="Group_1209244-2" data-name="Group 1209244" transform="translate(-276.16 -144)">
        <g id="Group_1209243" data-name="Group 1209243">
          <g id="Group_1209238" data-name="Group 1209238" transform="translate(1126.941 -4970.556)">
            <g id="Group_1202749" data-name="Group 1202749" transform="translate(805.89 1987.713)">
              <ellipse id="Ellipse_12435" data-name="Ellipse 12435" cx="29" cy="28.5" rx="29" ry="28.5" transform="translate(32.329 22.843)" fill="#ffca49"/>
              <circle id="Ellipse_12436" data-name="Ellipse 12436" cx="16" cy="16" r="16" transform="translate(0.329 -0.157)" fill="#ffca49"/>
            </g>
          </g>
        </g>
      </g>
    </g>
    <g id="Mask_Group_1099415" data-name="Mask Group 1099415" clip-path="url(#clip-path)">
      <g id="Page-1" transform="translate(1666.506 -3122.016)">
        <g id="_039---Frozen-Veg" data-name="039---Frozen-Veg" transform="translate(-1.183)">
          <path id="Shape" d="M70.994,53.246a16.565,16.565,0,0,1-33.131,0,15.177,15.177,0,0,1,.118-1.952,16.565,16.565,0,0,1,33.012,1.952Z" fill="#00bcd4"/>
          <path id="Shape-2" data-name="Shape" d="M54.429,36.68a16.59,16.59,0,0,0-1.775.1,16.565,16.565,0,0,1,0,32.934A16.565,16.565,0,1,0,54.429,36.68Z" fill="#00838f"/>
          <path id="Shape-3" data-name="Shape" d="M66.841,36.562a10.152,10.152,0,0,1,2.627,9.726,16.565,16.565,0,0,0-30.587,1.242,11.132,11.132,0,0,1-1.041-1.219,10.7,10.7,0,0,1-2.224-6.366,7.809,7.809,0,0,1,2.224-5.609,7.769,7.769,0,0,1-5.6,2.213,10.67,10.67,0,0,1-6.378-2.213,11.791,11.791,0,0,1-3.9-5.064v-.012a8.993,8.993,0,0,1,.13-7.443v-.012a4.7,4.7,0,0,1,.379-.674,9.8,9.8,0,0,1-1.444-1.2,10.321,10.321,0,0,1,14.589-14.6,10.034,10.034,0,0,1,.816.935,5.916,5.916,0,0,1,1.621-3.36C40.739.225,45.6.734,48.927,4.047a9.883,9.883,0,0,1,2.615,4.638C54.263,6.224,58.949,6.768,62.179,10s3.775,7.916,1.313,10.637a9.884,9.884,0,0,1,4.638,2.615c3.313,3.325,3.822,8.188,1.136,10.874a5.916,5.916,0,0,1-3.36,1.621,10.033,10.033,0,0,1,.935.816Z" fill="#a4c400"/>
          <path id="Shape-4" data-name="Shape" d="M32.066,5.336a10.034,10.034,0,0,1,.816.935,6.256,6.256,0,0,1,.872-2.39A10.176,10.176,0,0,0,26.7,2.546,10.03,10.03,0,0,1,32.066,5.336Z" fill="#90ac00"/>
          <path id="Shape-5" data-name="Shape" d="M30.423,36.375a9.45,9.45,0,0,0,1.82.175c.183,0,.364-.013.545-.024a7.379,7.379,0,0,1,1.5-2.189A7.482,7.482,0,0,1,30.423,36.375Z" fill="#90ac00"/>
          <path id="Shape-6" data-name="Shape" d="M45.377,4.047a9.883,9.883,0,0,1,2.615,4.638,5.94,5.94,0,0,1,3.065-1.441,10.026,10.026,0,0,0-2.13-3.195,8.822,8.822,0,0,0-8.2-2.636,9.821,9.821,0,0,1,4.651,2.634Z" fill="#90ac00"/>
          <path id="Shape-7" data-name="Shape" d="M65.906,35.746a5.916,5.916,0,0,0,3.36-1.621c2.686-2.686,2.177-7.549-1.136-10.874a9.883,9.883,0,0,0-4.638-2.615c2.461-2.721,1.917-7.407-1.313-10.637a8.756,8.756,0,0,0-8.164-2.627A9.731,9.731,0,0,1,58.629,10c3.23,3.23,3.775,7.916,1.313,10.637a9.884,9.884,0,0,1,4.638,2.615c3.313,3.325,3.822,8.188,1.136,10.874a5.916,5.916,0,0,1-3.36,1.621,9.836,9.836,0,0,1,3.6,5.613,16.649,16.649,0,0,1,3.512,4.929,10.152,10.152,0,0,0-2.627-9.726A10.035,10.035,0,0,0,65.906,35.746Z" fill="#90ac00"/>
          <path id="Shape-8" data-name="Shape" d="M50.879,36.68a16.544,16.544,0,0,0-14.107,7.909,11.61,11.61,0,0,0,1.065,1.723,11.132,11.132,0,0,0,1.041,1.219A16.584,16.584,0,0,1,52.654,36.786a16.65,16.65,0,0,0-1.775-.105Z" fill="#90ac00"/>
          <path id="Shape-9" data-name="Shape" d="M38.881,47.531a16.633,16.633,0,0,0-.9,3.763,21.241,21.241,0,0,0-8.756,5.171L16.553,69.136a2.452,2.452,0,0,1-3.467-.095l-4.981-4.97-4.97-4.981a2.452,2.452,0,0,1-.095-3.467L15.713,42.951a23.184,23.184,0,0,0,6.247-13.678,11.791,11.791,0,0,0,3.9,5.064A32.352,32.352,0,0,1,23.9,41.674a1.192,1.192,0,0,0,1.952,1.278l6.389-6.4a7.769,7.769,0,0,0,5.6-2.213,7.809,7.809,0,0,0-2.224,5.609l-6.389,6.378A1.192,1.192,0,0,0,30.5,48.276a32.351,32.351,0,0,1,7.336-1.964,11.132,11.132,0,0,0,1.041,1.219Z" fill="#549414"/>
          <path id="Shape-10" data-name="Shape" d="M64.9,54.435l-3.255,1.61-4.851-2.8,4.851-2.8L64.9,52.062a1.183,1.183,0,0,0,1.048-2.122l-1.841-.911,1.158-.67a1.183,1.183,0,1,0-1.183-2.049l-1.16.669.133-2.051a1.183,1.183,0,0,0-1.105-1.257A1.158,1.158,0,0,0,60.7,44.777l-.232,3.617-4.851,2.8V45.6l3.023-2.011a1.183,1.183,0,0,0-1.313-1.969l-1.71,1.137V41.413a1.183,1.183,0,1,0-2.366,0v1.339l-1.71-1.141a1.183,1.183,0,0,0-1.313,1.969L53.246,45.6v5.6l-4.851-2.8-.237-3.624A1.168,1.168,0,0,0,46.9,43.665,1.183,1.183,0,0,0,45.8,44.922l.137,2.053-1.16-.669a1.183,1.183,0,1,0-1.183,2.049l1.158.67-1.841.911a1.185,1.185,0,0,0,1.048,2.126l3.255-1.616,4.851,2.8-4.851,2.8-3.256-1.61a1.183,1.183,0,0,0-1.048,2.122l1.841.911-1.158.67a1.183,1.183,0,1,0,1.183,2.049l1.16-.669L45.8,61.568A1.183,1.183,0,0,0,46.9,62.825h.077a1.183,1.183,0,0,0,1.183-1.108l.237-3.624,4.844-2.8v5.6l-3.023,2.012a1.183,1.183,0,0,0,1.313,1.969l1.71-1.137v1.339a1.183,1.183,0,0,0,2.366,0V63.739l1.71,1.141a1.183,1.183,0,1,0,1.313-1.969L55.612,60.9v-5.6l4.851,2.8.237,3.624a1.183,1.183,0,0,0,1.183,1.108h.077a1.183,1.183,0,0,0,1.105-1.257l-.141-2.055,1.16.669a1.183,1.183,0,1,0,1.183-2.049l-1.158-.67,1.841-.911A1.183,1.183,0,0,0,64.9,54.434Z" fill="#f5f5f5"/>
          <path id="Shape-11" data-name="Shape" d="M12.33,54.271a1.183,1.183,0,0,1-.837-2.02l7.6-7.6a1.183,1.183,0,0,1,1.673,1.673l-7.6,7.6a1.183,1.183,0,0,1-.837.347Z" fill="#f5f5f5"/>
          <path id="Shape-12" data-name="Shape" d="M8.106,58.5a1.183,1.183,0,0,1-.837-2.02l.844-.845A1.183,1.183,0,0,1,9.787,57.3l-.844.845a1.183,1.183,0,0,1-.837.347Z" fill="#f5f5f5"/>
          <g id="Group_1209247" data-name="Group 1209247">
            <path id="Shape-13" data-name="Shape" d="M68.2,36.285a6.724,6.724,0,0,0,1.9-1.324c3.139-3.139,2.63-8.768-1.139-12.552A11.219,11.219,0,0,0,65.364,20c1.693-3.226.818-7.677-2.349-10.842S55.4,5.121,52.174,6.813a11.249,11.249,0,0,0-2.411-3.605C45.983-.556,40.348-1.065,37.216,2.073a6.656,6.656,0,0,0-1.324,1.9A11.222,11.222,0,0,0,28.462,1.2h-.007A11.619,11.619,0,0,0,16.882,12.778a11.217,11.217,0,0,0,3.307,8q.364.355.747.683a10.279,10.279,0,0,0-.2,7.938,21.653,21.653,0,0,1-5.868,12.716L2.2,54.784a3.646,3.646,0,0,0,.093,5.147l4.97,4.97,4.976,4.97a3.77,3.77,0,0,0,2.671,1.124,3.459,3.459,0,0,0,2.485-1.02L30.06,57.3a19.622,19.622,0,0,1,6.626-4.266c0,.07-.011.138-.011.208a17.749,17.749,0,1,0,34.014-7.08,11.248,11.248,0,0,0-2.487-9.88ZM19.249,12.779A9.252,9.252,0,0,1,28.456,3.57a8.867,8.867,0,0,1,6.317,2.6A9.017,9.017,0,0,1,35.492,7a1.183,1.183,0,0,0,2.1-.551,4.758,4.758,0,0,1,1.287-2.7c2.219-2.219,6.346-1.707,9.2,1.132a8.686,8.686,0,0,1,2.3,4.08,1.183,1.183,0,0,0,1.944.6c2.285-2.065,6.242-1.5,9.014,1.268s3.332,6.729,1.273,9.007a1.183,1.183,0,0,0,.6,1.945,8.684,8.684,0,0,1,4.075,2.3c2.84,2.855,3.354,6.981,1.137,9.2a4.763,4.763,0,0,1-2.7,1.289,1.183,1.183,0,0,0-.551,2.1,8.764,8.764,0,0,1,3.356,5.838,17.7,17.7,0,0,0-29.962,2.8c-2.35-3.371-2.4-7.64.1-10.14A1.183,1.183,0,1,0,37,33.5a6.761,6.761,0,0,1-5.462,1.838,9.955,9.955,0,0,1-6.136-2.966c-3.089-3.089-3.9-7.548-1.936-10.6a1.183,1.183,0,0,0-.334-1.622,8.638,8.638,0,0,1-1.27-1.051,8.861,8.861,0,0,1-2.617-6.32Zm15.52,29.683a12.016,12.016,0,0,0,1.136,2.988,34.156,34.156,0,0,0-5.842,1.717Zm-8.046-6.191A12.1,12.1,0,0,0,29.7,37.413l-4.713,4.7a33.316,33.316,0,0,0,1.737-5.843ZM28.38,55.627,15.711,68.306a1.309,1.309,0,0,1-1.789-.1L8.952,63.24v-.006l-4.97-4.977a1.294,1.294,0,0,1-.095-1.8L16.546,43.786a22.9,22.9,0,0,0,5.979-11.122,13.033,13.033,0,0,0,1.2,1.383c.273.273.566.511.854.755a30.807,30.807,0,0,1-1.775,6.425,2.34,2.34,0,0,0,.889,2.853,2.391,2.391,0,0,0,1.323.4,2.366,2.366,0,0,0,1.673-.7L32.776,37.7a9.694,9.694,0,0,0,2-.29,9.742,9.742,0,0,0-.288,1.988l-6.1,6.1a2.366,2.366,0,0,0,2.551,3.887,30.837,30.837,0,0,1,6.432-1.785c.056.066.118.133.172.2a17.664,17.664,0,0,0-.619,2.634,22.218,22.218,0,0,0-8.537,5.2Zm26.049,13A15.382,15.382,0,1,1,69.811,53.246,15.382,15.382,0,0,1,54.429,68.628Z"/>
            <path id="Shape-14" data-name="Shape" d="M36.7,17.552a1.183,1.183,0,0,0,1.633-.355,7.608,7.608,0,0,0,1.044-5.561,1.184,1.184,0,1,0-2.32.473,5.233,5.233,0,0,1-.71,3.821,1.183,1.183,0,0,0,.354,1.622Z"/>
            <path id="Shape-15" data-name="Shape" d="M37.727,19.495a1.183,1.183,0,0,0,.219,1.657,6.381,6.381,0,0,1,2.459,5.181,1.183,1.183,0,0,0,1.145,1.22h.038a1.183,1.183,0,0,0,1.183-1.147,8.776,8.776,0,0,0-3.383-7.134,1.183,1.183,0,0,0-1.661.222Z"/>
            <path id="Shape-16" data-name="Shape" d="M46.319,20.186a1.174,1.174,0,0,0,.625-.18,8.4,8.4,0,0,0,3.824-5.861,1.183,1.183,0,1,0-2.34-.34A6.018,6.018,0,0,1,45.691,18a1.183,1.183,0,0,0,.628,2.188Z"/>
            <path id="Shape-17" data-name="Shape" d="M28.383,17.943a1.17,1.17,0,0,0,.561-.143,5.131,5.131,0,0,1,3.634-.458,1.184,1.184,0,1,0,.574-2.3,7.515,7.515,0,0,0-5.325.673,1.183,1.183,0,0,0,.562,2.224Z"/>
            <path id="Shape-18" data-name="Shape" d="M52.547,26.859a1.183,1.183,0,0,0,1.63-.377,6.02,6.02,0,0,1,4.193-2.736,1.184,1.184,0,1,0-.34-2.343,8.413,8.413,0,0,0-5.859,3.825A1.183,1.183,0,0,0,52.547,26.859Z"/>
          </g>
        </g>
      </g>
    </g>
  </g>
</svg>
