<svg xmlns="http://www.w3.org/2000/svg" xmlns:xlink="http://www.w3.org/1999/xlink" width="110" height="98" viewBox="0 0 110 98">
  <defs>
    <clipPath id="clip-path">
      <rect id="Rectangle_411099" data-name="Rectangle 411099" width="86" height="79" transform="translate(6952 -11122)" fill="#fff" stroke="#707070" stroke-width="1" opacity="0"/>
    </clipPath>
  </defs>
  <g id="Group_1209274" data-name="Group 1209274" transform="translate(-6940.001 11132)">
    <g id="Group_1209254" data-name="Group 1209254" transform="translate(-4 57)">
      <g id="Group_1208321" data-name="Group 1208321" transform="translate(6138.535 -13176.608)">
        <g id="Group_1202749" data-name="Group 1202749" transform="translate(805.781 1988)">
          <ellipse id="Ellipse_12435" data-name="Ellipse 12435" cx="35.5" cy="35" rx="35.5" ry="35" transform="translate(38.685 27.609)" fill="#89b254"/>
          <circle id="Ellipse_12436" data-name="Ellipse 12436" cx="19.5" cy="19.5" r="19.5" transform="translate(-0.315 -0.391)" fill="#89b254"/>
        </g>
      </g>
    </g>
    <g id="Mask_Group_1099419" data-name="Mask Group 1099419" clip-path="url(#clip-path)">
      <g id="Layer_32" data-name="Layer 32" transform="translate(6954.227 -11123.272)">
        <path id="Path_1260369" data-name="Path 1260369" d="M59.886,45.87l.47-.313A11.747,11.747,0,0,0,64.983,39.5c4.223,0,7.645-2.853,7.645-6.371a5.388,5.388,0,0,0-.317-1.809,5.081,5.081,0,0,0,2.866-4.562c0-.06-.015-.116-.018-.175a5.065,5.065,0,0,0,1.224-9.349c.2-1.124.127-2.347-2.75-4.165a1.943,1.943,0,0,0-1.032-.327,3.81,3.81,0,0,0-2.765,1.212L44.6,45.87Z" fill="#82ab00"/>
        <path id="Path_1260370" data-name="Path 1260370" d="M45.893,28.82a5.041,5.041,0,0,1,.907-2.432,3.806,3.806,0,0,1,1.363-7.25,3.772,3.772,0,0,1,.357-5.492A5.06,5.06,0,0,1,49.5,5.9a5.111,5.111,0,0,1,4.688-.418,3.823,3.823,0,0,1,3.147-1.656,3.749,3.749,0,0,1,1.873.51,3.8,3.8,0,0,1,6.868.943,3.787,3.787,0,0,1,1.491,6.435,3.823,3.823,0,0,1,2.51,3.58,3.783,3.783,0,0,1-1.8,3.224,6.329,6.329,0,0,1-.752,9.493,3.823,3.823,0,0,1-3.823,3.848,26.491,26.491,0,0,1-9.831,11.722Z" fill="#8dbf00"/>
        <path id="Path_1260371" data-name="Path 1260371" d="M70.079,15.29a3.822,3.822,0,0,0-2.51-3.58,3.745,3.745,0,0,0,.665-4.768,3.745,3.745,0,0,0-1.978-.571,3.8,3.8,0,0,0-3.224,1.784,3.749,3.749,0,0,0-1.873-.51A3.823,3.823,0,0,0,58.013,9.3a5.111,5.111,0,0,0-4.688.418,5.06,5.06,0,0,0-.982,7.749,3.772,3.772,0,0,0-.357,5.492,3.806,3.806,0,0,0-1.363,7.25,5.041,5.041,0,0,0-.907,2.432l5.429,10.042a26.487,26.487,0,0,0,8.564-10.83,3.823,3.823,0,0,0,3.823-3.848,6.329,6.329,0,0,0,.752-9.493,3.783,3.783,0,0,0,1.8-3.224Z" fill="#a6d305"/>
        <path id="Path_1260372" data-name="Path 1260372" d="M66.043,18.546l-2.12-1.414a9.781,9.781,0,0,1-4.108,3.492c.033-.45.071-.9.071-1.354a44.005,44.005,0,0,0-1.31-10.65l-2.474.61c.3,1.21.531,2.437.722,3.67a12.822,12.822,0,0,0-5.857-1.431v2.548a10.258,10.258,0,0,1,6.116,2.039l.127.092c.079,1.04.127,2.081.127,3.123a15.5,15.5,0,0,1-.779,4.842,18.61,18.61,0,0,0-4.885-4.787l-1.414,2.12a16.047,16.047,0,0,1,5.05,5.479,15.533,15.533,0,0,1-3.115,3.889L48.183,34.38l1.692,1.911L53.9,32.714A18.1,18.1,0,0,0,59.362,23.5,12.314,12.314,0,0,0,66.043,18.546Z" fill="#82ab00"/>
        <path id="Path_1260373" data-name="Path 1260373" d="M18.051,21.662,19.113,2.548H11.468l1.51,21.141Z" fill="#719301"/>
        <path id="Path_1260374" data-name="Path 1260374" d="M12.222,23.689,2.548,14.016l5.1-5.1,8.6,12.9Z" fill="#82ab00"/>
        <path id="Path_1260375" data-name="Path 1260375" d="M14.016,45.87l-3.568-8.041a17.67,17.67,0,0,1-1.529-7.176,8.992,8.992,0,0,1,17.443-3.071q1.169,3.212,2.046,6.518L31.854,45.87Z" fill="#f79b31"/>
        <path id="Path_1260376" data-name="Path 1260376" d="M26.361,27.579a8.979,8.979,0,0,0-6.584-5.7,8.992,8.992,0,0,0-7.036,8.773,17.67,17.67,0,0,0,1.529,7.176l3.568,8.041H31.854L28.414,34.1Q27.53,30.8,26.361,27.579Z" fill="#fcb732"/>
        <path id="Path_1260377" data-name="Path 1260377" d="M42.048,30.58H39.5V28.032a4.883,4.883,0,0,0-2.714-4.392l-1.678-.832,1.139-2.281,1.678.84a7.418,7.418,0,0,1,4.123,6.665Z" fill="#a6d305"/>
        <path id="Path_1260378" data-name="Path 1260378" d="M52.4,45.911A10.02,10.02,0,0,0,54.789,39.5c0-6.334-6.275-11.468-14.016-11.468S26.758,33.165,26.758,39.5a10.019,10.019,0,0,0,2.361,6.371Z" fill="#e73844"/>
        <path id="Path_1260379" data-name="Path 1260379" d="M40.773,28.032a16.8,16.8,0,0,0-4.587.637,10.562,10.562,0,0,0-4.332,8.282,10.816,10.816,0,0,0,5.239,8.933l15.3.027A10.02,10.02,0,0,0,54.789,39.5c0-6.334-6.275-11.468-14.016-11.468Z" fill="#ff4d55"/>
        <path id="Path_1260380" data-name="Path 1260380" d="M5.1,58.612H76.45v7.645H5.1Z" fill="#785349"/>
        <path id="Path_1260381" data-name="Path 1260381" d="M2.548,45.87H79V58.612H2.548Z" fill="#a37765"/>
        <path id="Path_1260382" data-name="Path 1260382" d="M5.1,47.837a8.227,8.227,0,0,0,8.225,8.226H79V45.87H5.1Z" fill="#bf9377"/>
        <path id="Path_1260383" data-name="Path 1260383" d="M2.548,66.257H79V79H2.548Z" fill="#a37765"/>
        <path id="Path_1260384" data-name="Path 1260384" d="M5.1,68.224a8.227,8.227,0,0,0,8.225,8.226H79V66.257H5.1Z" fill="#bf9377"/>
        <g id="Group_1209256" data-name="Group 1209256">
          <path id="Path_1260385" data-name="Path 1260385" d="M8.919,50.967h2.548v2.548H8.919Z" fill="#785349"/>
          <path id="Path_1260386" data-name="Path 1260386" d="M8.919,71.353h2.548V73.9H8.919Z" fill="#785349"/>
          <path id="Path_1260387" data-name="Path 1260387" d="M70.079,50.967h2.548v2.548H70.079Z" fill="#785349"/>
          <path id="Path_1260388" data-name="Path 1260388" d="M70.079,71.353h2.548V73.9H70.079Z" fill="#785349"/>
        </g>
        <path id="Path_1260389" data-name="Path 1260389" d="M76.45,66.257V59.886H13.785a4.866,4.866,0,0,0-4.866,4.866v1.5Z" fill="#916658"/>
        <path id="Path_1260390" data-name="Path 1260390" d="M38.225,33.128l2.548,3.823L44.6,33.128l5.1,2.548v-.965a13.068,13.068,0,0,0-.824-4.564,16.564,16.564,0,0,0-15.37-.437A7.518,7.518,0,0,0,31.854,34.4Z" fill="#82ab00"/>
        <path id="Path_1260391" data-name="Path 1260391" d="M16.255,29.344,8.946,31.171a17.592,17.592,0,0,0,.265,2.561l7.663-1.911Z" fill="#ec8329"/>
        <path id="Path_1260392" data-name="Path 1260392" d="M17.529,34.441,9.884,36.352c.169.5.35.993.564,1.475l.4.91,7.3-1.826Z" fill="#ec8329"/>
        <path id="Path_1260393" data-name="Path 1260393" d="M18.8,39.537l-6.841,1.71,1.05,2.365,6.41-1.6Z" fill="#ec8329"/>
        <path id="Path_1260394" data-name="Path 1260394" d="M76.407,27.5a6.331,6.331,0,0,0,1.31-10.915c0-1.726-1.044-3.106-3.4-4.6a3.069,3.069,0,0,0-1.719-.524,5.076,5.076,0,0,0-2.381.637,5.171,5.171,0,0,0-.756-.765,5.055,5.055,0,0,0-2.389-7.055,5.072,5.072,0,0,0-8.241-1.507,5.122,5.122,0,0,0-5.053,1.228,6.387,6.387,0,0,0-7.75,4.777,6.338,6.338,0,0,0,.83,4.788,5.034,5.034,0,0,0-.647,4.793A5.064,5.064,0,0,0,45.114,26.8c-.064.147-.1.3-.155.452a17.924,17.924,0,0,0-3.021-.447,7.4,7.4,0,0,0-4.014-5.447l-1.678-.84L35.107,22.8l1.678.838a4.875,4.875,0,0,1,2.556,3.178,16.363,16.363,0,0,0-10.383,4.6c-.431-1.44-.892-2.873-1.4-4.277A10.3,10.3,0,0,0,19.389,20.5l1-17.882a1.274,1.274,0,0,0-1.274-1.346H11.468a1.274,1.274,0,0,0-1.274,1.365l.626,8.747L8.705,8.212a1.274,1.274,0,0,0-1.961-.194l-5.1,5.1a1.274,1.274,0,0,0,0,1.8L10.4,23.673a10.219,10.219,0,0,0-2.759,6.98,18.822,18.822,0,0,0,1.633,7.7L12.055,44.6H2.548A1.274,1.274,0,0,0,1.274,45.87V58.612a1.274,1.274,0,0,0,1.274,1.274H3.823v5.1H2.548a1.274,1.274,0,0,0-1.274,1.274V79a1.274,1.274,0,0,0,1.274,1.274H79A1.274,1.274,0,0,0,80.273,79V66.257A1.274,1.274,0,0,0,79,64.983H77.724v-5.1H79a1.274,1.274,0,0,0,1.274-1.274V45.87A1.274,1.274,0,0,0,79,44.6H63.375a13.065,13.065,0,0,0,2.508-3.861c4.5-.387,8.02-3.657,8.02-7.607a6.576,6.576,0,0,0-.113-1.21A6.3,6.3,0,0,0,76.407,27.5ZM48.036,26.064a1.274,1.274,0,0,0-.689-.829,2.53,2.53,0,0,1,.91-4.825,1.274,1.274,0,0,0,.846-2.137,2.5,2.5,0,0,1,.237-3.647,1.274,1.274,0,0,0,.111-1.855,3.77,3.77,0,0,1-.931-3.47,3.722,3.722,0,0,1,1.656-2.324,3.823,3.823,0,0,1,3.536-.319A1.274,1.274,0,0,0,55.24,6.2a2.524,2.524,0,0,1,3.341-.764,1.274,1.274,0,0,0,1.707-.427,2.527,2.527,0,0,1,4.57.629,1.274,1.274,0,0,0,.854.854,2.513,2.513,0,0,1,1,4.274,1.274,1.274,0,0,0,.414,2.133,2.548,2.548,0,0,1,1.681,2.389,2.514,2.514,0,0,1-1.2,2.142,1.274,1.274,0,0,0-.242,1.967,5.055,5.055,0,0,1-.6,7.59,1.274,1.274,0,0,0-.51,1.019,2.548,2.548,0,0,1-2.546,2.571,1.274,1.274,0,0,0-1.171.772,25.139,25.139,0,0,1-6.511,8.988c.022-.279.037-.559.037-.841a11.14,11.14,0,0,0-2.293-6.673l.127-.112A18.1,18.1,0,0,0,59.362,23.5a12.314,12.314,0,0,0,6.679-4.955l-2.12-1.414a9.781,9.781,0,0,1-4.108,3.492c.033-.45.071-.9.071-1.354a44.006,44.006,0,0,0-1.31-10.65l-2.474.61c.3,1.21.531,2.437.722,3.67a12.822,12.822,0,0,0-5.856-1.431v2.548a10.258,10.258,0,0,1,6.116,2.039l.127.092c.079,1.04.127,2.081.127,3.123a15.5,15.5,0,0,1-.779,4.842,18.61,18.61,0,0,0-4.885-4.787l-1.414,2.12a16.047,16.047,0,0,1,5.05,5.479,15.534,15.534,0,0,1-3.115,3.889l-.127.117a15.44,15.44,0,0,0-4.69-2.913,3.843,3.843,0,0,1,.466-.9,1.274,1.274,0,0,0,.194-1.052ZM29.78,44.6a8.636,8.636,0,0,1-1.748-5.1,8.919,8.919,0,0,1,2.641-6.19A8.706,8.706,0,0,0,30.58,34.4a1.274,1.274,0,0,0,1.529,1.249l5.535-1.106,2.074,3.113a1.274,1.274,0,0,0,.928.567,1.059,1.059,0,0,0,.127,0,1.274,1.274,0,0,0,.9-.373l3.173-3.173,4.276,2.144a1.274,1.274,0,0,0,1.844-1.147v-.965c0-.463-.025-.921-.07-1.377A8.909,8.909,0,0,1,53.515,39.5a8.641,8.641,0,0,1-1.748,5.1ZM47.8,31a11.738,11.738,0,0,1,.567,2.585l-3.2-1.6a1.274,1.274,0,0,0-1.47.24L40.971,34.95l-1.686-2.529a1.274,1.274,0,0,0-1.315-.542l-4.638.928a6.278,6.278,0,0,1,1.03-2.1,15.389,15.389,0,0,1,13.431.3ZM12.836,3.823h4.93l-.922,16.6-3.161-4.741Zm-5.388,7.1,6.775,10.164a10.288,10.288,0,0,0-1.86.944L4.35,14.016ZM14.271,43.3l5.155-1.288-.619-2.472-5.587,1.4L12.1,38.425l6.047-1.512-.619-2.472-6.409,1.6a16.262,16.262,0,0,1-.675-2.62l6.426-1.607-.619-2.472L10.2,30.857c0-.069-.01-.135-.01-.2a7.718,7.718,0,0,1,14.971-2.638c.7,1.941,1.328,3.932,1.872,5.926A10.754,10.754,0,0,0,26.758,44.6H14.844ZM77.724,77.724H3.822V67.531h73.9ZM75.176,64.983H6.371v-5.1H75.176Zm2.548-7.645H3.822V47.144h73.9ZM73.9,26.758a3.793,3.793,0,0,1-2.152,3.419,1.274,1.274,0,0,0-.637,1.57,4.128,4.128,0,0,1,.241,1.382c0,2.811-2.858,5.1-6.371,5.1a1.274,1.274,0,0,0-1.209.872,10.5,10.5,0,0,1-4.126,5.4l-.144.1H54.789c.028-.054.057-.106.084-.159a27.657,27.657,0,0,0,9.7-11.38,5.1,5.1,0,0,0,4.2-4.418,7.6,7.6,0,0,0,1.283-9.959,4.778,4.778,0,0,0,1.2-4.254,2.527,2.527,0,0,1,1.348-.41.837.837,0,0,1,.343.127c2.413,1.529,2.281,2.267,2.175,2.864a1.274,1.274,0,0,0,.631,1.333,3.792,3.792,0,0,1-.915,7.008,1.274,1.274,0,0,0-.958,1.274.442.442,0,0,0,.017.135Z"/>
        <path id="Path_1260395" data-name="Path 1260395" d="M8.919,50.967h2.548v2.548H8.919Z"/>
        <path id="Path_1260396" data-name="Path 1260396" d="M8.919,71.353h2.548V73.9H8.919Z"/>
        <path id="Path_1260397" data-name="Path 1260397" d="M70.079,50.967h2.548v2.548H70.079Z"/>
        <path id="Path_1260398" data-name="Path 1260398" d="M70.079,71.353h2.548V73.9H70.079Z"/>
      </g>
    </g>
  </g>
</svg>
