<svg xmlns="http://www.w3.org/2000/svg" xmlns:xlink="http://www.w3.org/1999/xlink" width="76.345" height="76.345" viewBox="0 0 76.345 76.345">
  <defs>
    <clipPath id="clip-path">
      <rect id="Rectangle_411074" data-name="Rectangle 411074" width="63" height="63" transform="translate(-8695 -9184)" fill="#fff" stroke="#707070" stroke-width="1" opacity="0"/>
    </clipPath>
  </defs>
  <g id="Group_1209329" data-name="Group 1209329" transform="translate(8701.725 9190.345)">
    <g id="Group_1209120" data-name="Group 1209120" transform="translate(-9723.691 -12293)">
      <g id="Group_1200255" data-name="Group 1200255" transform="translate(0 10)">
        <g id="Group_1187152" data-name="Group 1187152">
          <g id="Group_1185946" data-name="Group 1185946" transform="translate(-3.07)">
            <g id="Group_1184280" data-name="Group 1184280">
              <g id="Group_1182168" data-name="Group 1182168">
                <g id="Group_1178877" data-name="Group 1178877">
                  <g id="Group_1111311" data-name="Group 1111311">
                    <g id="Group_1098742" data-name="Group 1098742" transform="translate(1025.482 3093.101)">
                      <g id="Rectangle_400898" data-name="Rectangle 400898" transform="translate(-0.445 -0.445)" fill="#cfe0b9" stroke="#435829" stroke-width="1" opacity="0.859">
                        <rect width="76.345" height="76.345" rx="38.172" stroke="none"/>
                        <rect x="0.5" y="0.5" width="75.345" height="75.345" rx="37.672" fill="none"/>
                      </g>
                      <g id="Rectangle_400907" data-name="Rectangle 400907" transform="translate(-0.446 -0.445)" fill="none" stroke="#435829" stroke-width="1">
                        <rect width="76.345" height="76.345" rx="38.172" stroke="none"/>
                        <rect x="0.5" y="0.5" width="75.345" height="75.345" rx="37.672" fill="none"/>
                      </g>
                    </g>
                  </g>
                </g>
              </g>
            </g>
          </g>
        </g>
      </g>
    </g>
    <g id="Mask_Group_1099409" data-name="Mask Group 1099409" clip-path="url(#clip-path)">
      <g id="guante" transform="translate(-8695 -9184)">
        <g id="Group_1209127" data-name="Group 1209127">
          <path id="Path_1260212" data-name="Path 1260212" d="M54.134,19.128c-1.656-.732-3.856.889-5.9,3.2-1.6,1.817-3.183,3.911-5.435,6.468-.687.78-1.656.6-1.917-.224-2.433-2.694,9.242-16.934,6.467-21.429-.044-.024-.088-.049-.135-.072-2.042-.975-3.966,1.367-5.458,4.491-.688,1.442-5.521,11.577-6.174,12.941a1.412,1.412,0,0,1-2.38.3c-3.025-2.034,3.5-21.2-.143-23.813a2.29,2.29,0,0,0-.351-.059C30.466.74,29.4,3.506,28.993,6.944l-2.027,17.2c-.233,1.977-1.679,2.365-2.405,1.334-2.774-2.49.689-19.948-2.774-21.874a2.276,2.276,0,0,0-.631-.087c-2.262,0-2.99,2.943-2.99,6.4v23.8c-.579-2.3-.473-5.876-5.247-9.546-3.568-2.743-7.1,0-4.492,3.322,2.025,2.575,4,7.585,4.385,14.731.147,2.76.237,5.322,5.58,10.615l2.386.857-.43.989-.389,1.846.763.93-1.152.916-.308,1.465a1.859,1.859,0,0,0-.038.38l19.192.861a1.023,1.023,0,0,0,1-1.233l-1.189-5.65a15.354,15.354,0,0,0,3.664-5.469c1.522-3.882,1.753-13.248,1.753-13.248s6.449-7.64,8.738-10.238c1.851-2.1,3.051-4.5,1.754-6.126Z" fill="#bae6ef"/>
          <path id="Path_1260213" data-name="Path 1260213" d="M33.064.992c1.934.474,2.252,3.4,1.869,6.652-.274,2.324-1.925,15.063-1.9,16.582a1.076,1.076,0,0,0,.172.58,2.417,2.417,0,0,1-1.772-2.18c-.026-1.519,1.625-14.258,1.9-16.582A11.522,11.522,0,0,0,33.064.992ZM46.05,12.544c-.868,1.819-5.816,12.182-6.168,13.121a2.143,2.143,0,0,0,1,2.911,2.014,2.014,0,0,1,.1-1.312c.352-.939,5.3-11.3,6.168-13.121,1.457-3.052,2.072-5.955.2-7C47.618,8.542,47.021,10.51,46.05,12.544ZM22.423,22.07a4.012,4.012,0,0,0,2.138,3.41,2.7,2.7,0,0,1-.416-1.564V9.924c0-3.116-.591-5.811-2.359-6.318a12.856,12.856,0,0,1,.636,4.472ZM54.716,19.5a2.257,2.257,0,0,0-.582-.375c.482,1.541-.787,3.7-2.638,5.8-2.288,2.6-8.738,10.238-8.738,10.238s-.231,9.366-1.753,13.248a14.285,14.285,0,0,1-2.248,3.957,1.313,1.313,0,0,1-1.009.473H18.391c.587.581,1.236,1.195,1.956,1.846H37.785l.389,1.846H19.959l-.389,1.846H38.562l.279,1.326a.431.431,0,0,1-.421.519h-19.2a1.845,1.845,0,0,0,1.844,1.846H38.4A1.846,1.846,0,0,0,40.2,59.851l-1.086-5.157s1.941-1.249,3.463-5.131S44.522,35.9,44.522,35.9c.917-1.042,5.917-7.014,8.205-9.612S56.414,21,54.716,19.5Z" fill="#94d8e6"/>
        </g>
        <g id="Group_1209128" data-name="Group 1209128">
          <path id="Path_1260214" data-name="Path 1260214" d="M38.4,63H21.068a2.768,2.768,0,0,1-2.709-3.339l.977-4.64c-7.116-6.529-7.274-9.508-7.442-12.66l0-.078a35.308,35.308,0,0,0-1.469-8.647.923.923,0,1,1,1.761-.552,37.135,37.135,0,0,1,1.551,9.1h0l0,.078c.154,2.9.288,5.414,6.967,11.509H35.427a.923.923,0,0,1,0,1.846H21.1l-.931,4.424a.923.923,0,0,0,.9,1.113H38.4a.923.923,0,0,0,.9-1.113l-.154-.733H23.385a.923.923,0,1,1,0-1.846H38.759l-.543-2.578a.923.923,0,0,1,.4-.966c.01-.007,1.731-1.192,3.1-4.692,1.448-3.7,1.874-13.272,1.878-13.369a.922.922,0,0,1,.229-.57c.347-.394,1.335-1.561,2.478-2.912l.009-.01a.923.923,0,0,1,1.409,1.192l-.009.01c-1.007,1.19-1.836,2.169-2.288,2.693C45.34,38.029,44.86,46.28,43.441,49.9a13.722,13.722,0,0,1-3.3,5.164l.968,4.6A2.768,2.768,0,0,1,38.4,63ZM25.516,25.111c.108,0,.437-.256.533-1.074l.878-7.446a.923.923,0,1,1,1.833.216l-.878,7.446c-.16,1.361-1,2.786-2.474,2.7-1.053-.062-2.186-1.039-2.186-3.038V9.924c0-1.648-.2-5.482-2.068-5.482s-2.067,3.833-2.067,5.482v23.8a32.844,32.844,0,0,1-1.1,7.475.923.923,0,0,1-1.78-.489,31.791,31.791,0,0,0,1.03-6.876c-.086-.36-.157-.737-.232-1.135a11.076,11.076,0,0,0-4.655-7.789c-1.515-1.165-2.947-1.129-3.577-.492-.551.556-.408,1.519.373,2.511a15.188,15.188,0,0,1,1.584,2.538.923.923,0,0,1-1.648.832A13.334,13.334,0,0,0,7.7,28.073c-1.677-2.133-1.174-4-.234-4.95,1.163-1.176,3.541-1.575,6.014.326a14.127,14.127,0,0,1,3.762,4.141V9.924c0-6.056,2.128-7.327,3.913-7.327s3.913,1.271,3.913,7.327V23.915c0,.882.333,1.189.448,1.2ZM49.233,31.3a.923.923,0,0,1-.7-1.519c.255-.3,2.406-2.854,3.506-4.1s3.472-4.247,2.072-5.48-4.085,1.51-5.175,2.747c-.721.819-4.2,5.068-5.435,6.468a2.086,2.086,0,0,1-2.639.546,2.345,2.345,0,0,1-.732-3.016c.32-.852,4.021-8.632,6.2-13.194.71-1.487,2.18-5.034.5-5.838s-3.517,2.569-4.227,4.056c-.225.472-5.735,12.024-6.175,12.942A2.374,2.374,0,0,1,33.761,26.2a2.031,2.031,0,0,1-1.65-1.959c-.02-1.159,1.846-16.206,1.9-16.706.3-2.533.093-4.448-.563-5.254a1.117,1.117,0,0,0-.819-.429c-.783-.069-2.172.519-2.724,5.2L29.22,12.9a.923.923,0,0,1-1.833-.216l.689-5.85c.7-5.914,2.949-6.975,4.715-6.822a2.969,2.969,0,0,1,2.092,1.1c1.013,1.243,1.338,3.476.966,6.636-.06.506-1.912,15.333-1.893,16.458,0,.05,0,.144.2.187a.532.532,0,0,0,.6-.288c.439-.916,5.948-12.468,6.173-12.939C43.537,5.7,46,5.474,47.616,6.243s2.983,2.833.374,8.3c-3.63,7.6-5.924,12.481-6.137,13.047-.189.5-.091.758-.046.785.019.011.148-.006.3-.183,1.211-1.375,4.693-5.624,5.435-6.468,4-4.545,6.44-4.092,7.78-2.912s2.1,3.54-1.907,8.085c-1.086,1.233-3.226,3.772-3.482,4.074a.921.921,0,0,1-.7.326Z"/>
        </g>
      </g>
    </g>
  </g>
</svg>
