<svg xmlns="http://www.w3.org/2000/svg" xmlns:xlink="http://www.w3.org/1999/xlink" width="107.424" height="118.118" viewBox="0 0 107.424 118.118">
  <defs>
    <filter id="Rectangle_410591" x="0" y="0" width="73.57" height="118.118" filterUnits="userSpaceOnUse">
      <feOffset dy="3" input="SourceAlpha"/>
      <feGaussianBlur stdDeviation="3" result="blur"/>
      <feFlood flood-opacity="0.161"/>
      <feComposite operator="in" in2="blur"/>
      <feComposite in="SourceGraphic"/>
    </filter>
    <clipPath id="clip-path">
      <rect id="Rectangle_411124" data-name="Rectangle 411124" width="87" height="78" transform="translate(6871.7 -10745.124)" fill="#fff" stroke="#707070" stroke-width="1" opacity="0"/>
    </clipPath>
  </defs>
  <g id="Group_1209257" data-name="Group 1209257" transform="translate(-6935.576 10616.03)">
    <g id="Group_1209257-2" data-name="Group 1209257" transform="translate(84.3 157.124)">
      <g id="Group_1209070" data-name="Group 1209070">
        <g transform="matrix(1, 0, 0, 1, 6851.28, -10773.15)" filter="url(#Rectangle_410591)">
          <path id="Rectangle_410591-2" data-name="Rectangle 410591" d="M10,0H45.57a10,10,0,0,1,10,10v90.118a0,0,0,0,1,0,0H0a0,0,0,0,1,0,0V10A10,10,0,0,1,10,0Z" transform="translate(9 6)" fill="#ffca49"/>
        </g>
        <g id="Mask_Group_1099420" data-name="Mask Group 1099420" clip-path="url(#clip-path)">
          <g id="comida-enlatada" transform="translate(6873.48 -10747.844)">
            <path id="Path_1260399" data-name="Path 1260399" d="M81.974,45.131V66.655c0,6.957-15.658,12.6-34.974,12.6-9.664,0-18.412-1.412-24.741-3.693s-10.23-5.428-10.23-8.9V45.131Z" fill="#ee4948"/>
            <path id="Path_1260400" data-name="Path 1260400" d="M22.26,45.131V75.559c-6.321-2.281-10.23-5.428-10.23-8.9V45.131Z" fill="#ce3838"/>
            <ellipse id="Ellipse_12644" data-name="Ellipse 12644" cx="34.973" cy="12.597" rx="34.973" ry="12.597" transform="translate(12.029 32.533)" fill="#e6e6e6"/>
            <path id="Path_1260401" data-name="Path 1260401" d="M71.413,16.786V38.309c0,6.957-15.658,12.6-34.973,12.6-9.664,0-18.412-1.412-24.741-3.693s-10.23-5.428-10.23-8.9V16.786Z" fill="#5e93cc"/>
            <path id="Path_1260402" data-name="Path 1260402" d="M11.7,16.786V47.213c-6.321-2.281-10.23-5.428-10.23-8.9V16.786Z" fill="#4e84ad"/>
            <g id="Group_1209269" data-name="Group 1209269">
              <ellipse id="Ellipse_12645" data-name="Ellipse 12645" cx="34.973" cy="12.597" rx="34.973" ry="12.597" transform="translate(1.468 4.188)" fill="#e6e6e6"/>
              <path id="Path_1260403" data-name="Path 1260403" d="M28.785,34.362a15.063,15.063,0,0,0-11.316,5.106,15.093,15.093,0,0,0,22.632,0A15.063,15.063,0,0,0,28.785,34.362Z" fill="#e6e6e6"/>
              <path id="Path_1260404" data-name="Path 1260404" d="M47.853,39.468a14.852,14.852,0,0,1,.814-4.854A15.084,15.084,0,0,0,40.1,39.468a15.084,15.084,0,0,0,8.566,4.854A14.857,14.857,0,0,1,47.853,39.468Z" fill="#e6e6e6"/>
              <path id="Path_1260405" data-name="Path 1260405" d="M49.506,62.72a15.063,15.063,0,0,1,11.316,5.106,15.093,15.093,0,0,1-22.632,0A15.063,15.063,0,0,1,49.506,62.72Z" fill="#e6e6e6"/>
              <path id="Path_1260406" data-name="Path 1260406" d="M30.438,67.825a14.852,14.852,0,0,0-.814-4.854,15.084,15.084,0,0,1,8.566,4.854,15.084,15.084,0,0,1-8.566,4.854A14.849,14.849,0,0,0,30.438,67.825Z" fill="#e6e6e6"/>
            </g>
            <path id="Path_1260407" data-name="Path 1260407" d="M72.88,35.085v-18.3C72.88,12.755,68.9,9.1,61.666,6.5,54.906,4.061,45.947,2.72,36.44,2.72S17.975,4.061,11.214,6.5C3.982,9.1,0,12.755,0,16.785V38.31c0,3.907,3.743,7.461,10.561,10.047v18.3c0,4.03,3.982,7.684,11.213,10.289C28.535,79.379,37.494,80.72,47,80.72a81.449,81.449,0,0,0,23.131-3.079,1.468,1.468,0,1,0-.864-2.807A78.46,78.46,0,0,1,47,77.784c-9.176,0-17.782-1.279-24.231-3.6-5.805-2.091-9.272-4.9-9.272-7.526v-15.8c5.554,5.022,18.48,8.344,33.5,8.344,9.506,0,18.465-1.341,25.226-3.777A24.845,24.845,0,0,0,80.5,50.845v15.81c0,1.943-1.884,4.005-5.306,5.806a1.468,1.468,0,1,0,1.368,2.6c5.682-2.991,6.875-6.222,6.875-8.4V45.129C83.441,41.217,79.7,37.672,72.88,35.085ZM12.209,9.259c6.45-2.323,15.055-3.6,24.231-3.6,19.744,0,33.5,5.865,33.5,11.128,0,2.621-3.466,5.434-9.272,7.525-6.45,2.323-15.055,3.6-24.231,3.6-19.744,0-33.5-5.865-33.5-11.128C2.937,14.164,6.4,11.351,12.209,9.259ZM2.937,38.31V22.5a24.845,24.845,0,0,0,8.277,4.573c6.761,2.435,15.72,3.776,25.226,3.776s18.465-1.341,25.226-3.776A24.85,24.85,0,0,0,69.943,22.5V38.31c0,2.621-3.466,5.434-9.272,7.525-6.45,2.323-15.055,3.6-24.231,3.6C16.7,49.438,2.937,43.573,2.937,38.31ZM71.231,52.655c-6.45,2.323-15.055,3.6-24.231,3.6-13.192,0-23.352-2.559-28.867-5.708A87.705,87.705,0,0,0,36.44,52.375c9.507,0,18.465-1.341,25.226-3.776C68.9,45.994,72.88,42.34,72.88,38.31v-.066C77.691,40.25,80.5,42.76,80.5,45.129,80.5,47.751,77.037,50.564,71.231,52.655Z"/>
            <path id="Path_1260408" data-name="Path 1260408" d="M28.017,12.067c2.695-.254,5.528-.383,8.423-.383a72.376,72.376,0,0,1,17.439,1.876c.179.047.352.094.521.141a4.4,4.4,0,0,0-1.877,3.408,4.1,4.1,0,0,0,1.322,2.91A50.439,50.439,0,0,1,48.312,21.1a1.468,1.468,0,0,0,.206,2.922A1.5,1.5,0,0,0,48.728,24c5.366-.766,14.367-2.723,14.367-7.219,0-2.558-2.851-4.6-8.475-6.066A75.337,75.337,0,0,0,36.44,8.748c-2.986,0-5.913.133-8.7.4a1.468,1.468,0,0,0,.275,2.924Zm32.141,4.718c0,.43-.822,1.247-2.88,2.109-1.329-.685-1.819-1.37-1.819-1.784,0-.474.639-1.3,2.439-2.079.027-.012.052-.025.078-.039C59.679,15.816,60.158,16.52,60.158,16.785Z"/>
            <path id="Path_1260409" data-name="Path 1260409" d="M36.44,24.822c1.589,0,3.179-.038,4.727-.114a1.468,1.468,0,0,0-.143-2.933c-1.5.073-3.043.11-4.584.11A72.376,72.376,0,0,1,19,20.009c-5.126-1.337-6.279-2.813-6.279-3.224,0-.485,1.433-2.188,7.8-3.589a1.468,1.468,0,1,0-.631-2.868C13.186,11.8,9.785,13.976,9.785,16.785,9.785,22.307,23.6,24.822,36.44,24.822Z"/>
            <path id="Path_1260410" data-name="Path 1260410" d="M48.4,45.766a1.469,1.469,0,0,0,1.654-1.923,13.407,13.407,0,0,1,0-8.751A1.468,1.468,0,0,0,48.4,33.17a16.621,16.621,0,0,0-8.3,4.2A16.557,16.557,0,0,0,16.37,38.5a1.468,1.468,0,0,0,0,1.945A16.557,16.557,0,0,0,40.1,41.568,16.62,16.62,0,0,0,48.4,45.766ZM46.619,36.7a16.368,16.368,0,0,0,0,5.529,13.741,13.741,0,0,1-4.467-2.765A13.736,13.736,0,0,1,46.619,36.7Zm-17.834,6.4a13.642,13.642,0,0,1-9.265-3.637,13.62,13.62,0,0,1,18.531,0A13.642,13.642,0,0,1,28.785,43.105Z"/>
            <path id="Path_1260411" data-name="Path 1260411" d="M28.511,73.637a1.469,1.469,0,0,0,1.379.487,16.621,16.621,0,0,0,8.3-4.2A16.557,16.557,0,0,0,61.922,68.8a1.468,1.468,0,0,0,0-1.945,16.557,16.557,0,0,0-23.733-1.128,16.621,16.621,0,0,0-8.3-4.2,1.468,1.468,0,0,0-1.654,1.923,13.407,13.407,0,0,1,0,8.75A1.467,1.467,0,0,0,28.511,73.637Zm20.995-9.449a13.642,13.642,0,0,1,9.265,3.637,13.62,13.62,0,0,1-18.531,0A13.641,13.641,0,0,1,49.506,64.188Zm-17.834.873a13.736,13.736,0,0,1,4.467,2.765,13.739,13.739,0,0,1-4.467,2.765,16.368,16.368,0,0,0,0-5.529Z"/>
          </g>
        </g>
      </g>
    </g>
  </g>
</svg>
